<?xml version="1.0" encoding="UTF-8"?>
<svg version="1.1" xmlns="http://www.w3.org/2000/svg" width="3840" height="2160">
    <path
        d="M0 0 C1.36562676 -0.00165256 2.73125305 -0.00374016 4.09687856 -0.0062201 C7.8421338 -0.01175892 11.58736605 -0.01111947 15.33262406 -0.00944251 C19.41026419 -0.00870901 23.48789797 -0.01374 27.56553537 -0.01801753 C35.64986068 -0.02558488 43.73417938 -0.02778995 51.81850786 -0.02834659 C61.50364112 -0.02926149 71.18876829 -0.03593282 80.87389893 -0.04269341 C104.28223965 -0.0587435 127.69057972 -0.06465575 151.09892496 -0.06944216 C162.17697642 -0.07177929 173.25502737 -0.07538209 184.33307843 -0.07913754 C222.26857826 -0.09197271 260.20407781 -0.10269149 298.13957977 -0.10614014 C300.52040466 -0.10636177 302.90122955 -0.10658355 305.28205444 -0.10680549 C307.66857154 -0.10702613 310.05508865 -0.10724661 312.44160575 -0.10746694 C317.22922242 -0.10790948 322.01683909 -0.1083566 326.80445576 -0.10880661 C327.9915039 -0.108916 329.17855205 -0.10902539 330.40157136 -0.1091381 C368.87842855 -0.11276749 407.35526689 -0.12868329 445.83211686 -0.15199697 C486.52990425 -0.17661117 527.22768085 -0.19031373 567.9254759 -0.19150805 C572.39600837 -0.1916795 576.86654085 -0.19189493 581.33707333 -0.19214249 C582.43781168 -0.19219826 583.53855003 -0.19225402 584.67264409 -0.19231148 C602.36228527 -0.1934606 620.05190705 -0.20447081 637.74154169 -0.21902954 C655.53410125 -0.23341937 673.32663604 -0.23661752 691.11919983 -0.22858956 C701.67903261 -0.22414489 712.23878521 -0.22794723 722.7986074 -0.24382807 C729.86649612 -0.25362133 736.93432905 -0.2523586 744.00221733 -0.24239184 C748.02007715 -0.23703095 752.03778372 -0.23618778 756.05563047 -0.24890056 C804.49065231 -0.39228243 850.3268868 9.41079408 890.37110615 38.13142776 C890.95779072 38.55133987 891.54447529 38.97125198 892.14893818 39.4038887 C900.41309468 45.39335658 908.01135101 52.07355129 915.37110615 59.13142776 C915.90236103 59.6354512 916.43361591 60.13947464 916.98096943 60.65877151 C925.27342862 68.55963551 932.63083848 76.86993289 939.37110615 86.13142776 C939.99082294 86.97664993 939.99082294 86.97664993 940.62305927 87.8389473 C970.62576744 129.28880601 978.89574257 176.49688699 978.75650881 226.54765314 C978.74877257 230.55474312 978.75872737 234.56180063 978.76623881 238.56888574 C978.77698758 245.56482497 978.77679896 252.56069453 978.76909733 259.55663681 C978.75767567 269.96038475 978.76358928 280.36407471 978.77272225 290.76782234 C978.78846482 309.35650345 978.78717221 327.94515351 978.77848551 346.53383753 C978.77092151 362.80105046 978.7689768 379.06825205 978.77255344 395.33546638 C978.7727826 396.41694691 978.77301175 397.49842744 978.77324785 398.6126801 C978.77418196 403.0033916 978.77513717 407.39410309 978.77612715 411.78481457 C978.78529194 452.92311393 978.77700302 494.06139357 978.76083645 535.19968988 C978.74659999 571.70404601 978.74787579 608.20837074 978.76221943 644.71272659 C978.7783023 685.78009171 978.78464284 726.84743943 978.77538264 767.91480726 C978.77442057 772.29693981 978.77348204 776.67907236 978.77255344 781.06120491 C978.7721976 782.679548 978.7721976 782.679548 978.77183456 784.33058489 C978.76843007 800.5834846 978.77239812 816.83637168 978.7799921 833.08926964 C978.78858844 851.57897741 978.78638587 870.06864943 978.77014987 888.55835278 C978.76137442 898.89122117 978.76071741 909.22401203 978.77208839 919.55687833 C978.7788589 926.47547188 978.77455135 933.3940038 978.76157409 940.31258828 C978.75449891 944.24324953 978.75186767 948.17375779 978.76279204 952.10441376 C978.81984708 974.25631695 978.18112224 996.43532372 972.62110615 1018.00642776 C972.36289082 1019.03558304 972.10467548 1020.06473831 971.83863544 1021.12508011 C963.25667 1054.25521925 946.71420739 1084.64448846 923.5234499 1109.79158401 C921.40394001 1112.0957336 919.35675273 1114.45138211 917.30860615 1116.81892776 C913.59857062 1120.97822541 909.67410312 1124.59632897 905.37110615 1128.13142776 C904.86224873 1128.55794632 904.3533913 1128.98446487 903.82911396 1129.42390823 C865.14339585 1161.78792226 818.0832476 1179.34183887 767.64819622 1179.25447559 C765.94475645 1179.25521597 764.24131682 1179.25639535 762.53787762 1179.25797209 C757.85482753 1179.26103563 753.17179921 1179.25787054 748.48875074 1179.25369396 C743.39486897 1179.25025569 738.30098939 1179.25263133 733.20710719 1179.25427145 C724.27894988 1179.25634457 715.35079924 1179.25470246 706.42264271 1179.25063324 C693.14679008 1179.24459926 679.87094166 1179.24429734 666.59508791 1179.24517523 C644.26320732 1179.24648934 621.93132965 1179.24315417 599.59945011 1179.23715782 C577.48556091 1179.2312342 555.37167293 1179.2273825 533.25778294 1179.22630501 C532.57086262 1179.2262706 531.8839423 1179.22623618 531.17620622 1179.22620073 C524.90219342 1179.22588753 518.62818063 1179.22559984 512.35416783 1179.22534275 C496.75808166 1179.22470338 481.16199552 1179.22374407 465.56590939 1179.22256756 C464.85571931 1179.22251424 464.14552922 1179.22246092 463.41381823 1179.22240599 C428.8720739 1179.21978484 394.33033038 1179.21347743 359.78858662 1179.20686722 C347.80270609 1179.20457555 335.81682556 1179.20230018 323.83094501 1179.20009232 C323.0875736 1179.19995537 322.34420219 1179.19981842 321.57830437 1179.19967732 C287.01700478 1179.19333254 252.45570505 1179.18960742 217.89440503 1179.18655752 C215.65049594 1179.18635946 213.40658685 1179.18616026 211.16267776 1179.18596084 C196.29210124 1179.18464105 181.42152471 1179.18336641 166.55094818 1179.18212198 C136.96251389 1179.17964552 107.37407962 1179.17690384 77.78564537 1179.17397993 C76.37658579 1179.17384069 74.96752621 1179.17370164 73.55846663 1179.17356277 C-12.44306989 1179.16508489 -98.44460553 1179.15092798 -207.62889385 1179.13142776 C-207.67726617 1091.12430747 -207.72387111 1003.11718478 -207.75592327 898.42708206 C-207.75634162 897.02781124 -207.75675998 895.62854043 -207.75717834 894.22926961 C-207.76594725 864.85527832 -207.7740973 835.48128688 -207.78153289 806.10729522 C-207.78526894 791.35077154 -207.78912385 776.59424791 -207.79309118 761.8377243 C-207.79368893 759.6118214 -207.79428328 757.3859185 -207.79487749 755.1600156 C-207.80405252 720.90266085 -207.81576964 686.6453093 -207.8348875 652.38795853 C-207.8352982 651.65194248 -207.8357089 650.91592643 -207.83613204 650.15760686 C-207.84276878 638.29158862 -207.84961975 626.4255705 -207.85649917 614.5595524 C-207.87632174 580.36282898 -207.89454829 546.16610802 -207.90231323 511.96937943 C-207.90247384 511.26546962 -207.90263444 510.56155981 -207.90279991 509.83631941 C-207.90629801 494.38011943 -207.9089822 478.92391941 -207.9108968 463.46771916 C-207.91168162 457.2477322 -207.91258348 451.02774526 -207.91352558 444.80775833 C-207.91362586 444.12702733 -207.91372614 443.44629634 -207.91382946 442.74493713 C-207.91711341 420.84757099 -207.92990824 398.9502232 -207.94774048 377.05286446 C-207.9661744 354.36131299 -207.97392728 331.66977629 -207.96939798 308.97821647 C-207.96711974 295.90581048 -207.97316829 282.83347093 -207.99128648 269.76107696 C-208.0025757 261.01674927 -208.0028571 252.27246486 -207.99438929 243.52813414 C-207.98988106 238.55341868 -207.98996717 233.57882846 -208.0035434 228.60412669 C-208.06524807 204.60290089 -207.87669779 180.87592664 -201.94139385 157.44392776 C-201.68648174 156.41759232 -201.43156963 155.39125687 -201.16893291 154.33382034 C-193.77405836 125.71512573 -179.96798099 98.5408442 -160.62889385 76.13142776 C-159.99338604 75.38634964 -159.35787823 74.64127151 -158.7031126 73.87361526 C-118.40915018 27.88841521 -61.65146349 -0.08745268 0 0 Z "
        fill="#632ebe" transform="translate(1533.628893852234,25.868572235107422)" />
    <path
        d="M0 0 C4.62862029 0.00008147 9.25714202 -0.00691654 13.88574219 -0.02050781 C36.20123407 -0.08490918 58.49567322 -0.14227587 80.78393555 1.08764648 C81.88539004 1.14766814 81.88539004 1.14766814 83.00909615 1.20890236 C125.13342155 3.58422426 163.07538004 14.02360532 195.87768555 41.18530273 C197.30854492 42.27198242 197.30854492 42.27198242 198.76831055 43.38061523 C199.81245117 44.27393555 199.81245117 44.27393555 200.87768555 45.18530273 C200.87768555 45.84530273 200.87768555 46.50530273 200.87768555 47.18530273 C201.86768555 47.51530273 202.85768555 47.84530273 203.87768555 48.18530273 C203.87768555 48.84530273 203.87768555 49.50530273 203.87768555 50.18530273 C204.53768555 50.18530273 205.19768555 50.18530273 205.87768555 50.18530273 C230.64157375 72.78325319 243.30743149 109.20427953 245.01928711 141.88891602 C246.70558477 183.42993784 233.35540792 222.16372176 205.3347168 252.98217773 C200.31406087 258.12256313 194.95888945 262.72464309 189.32299805 267.17749023 C187.02388012 269.06526438 184.94098025 271.04523427 182.87768555 273.18530273 C184.01463867 273.79116211 185.1515918 274.39702148 186.32299805 275.02124023 C196.38285795 280.45172597 205.78519543 286.25876559 214.87768555 293.18530273 C215.89604492 293.95616211 216.9144043 294.72702148 217.96362305 295.52124023 C223.05428158 299.47113495 223.05428158 299.47113495 224.87768555 301.18530273 C224.87768555 301.84530273 224.87768555 302.50530273 224.87768555 303.18530273 C225.53768555 303.18530273 226.19768555 303.18530273 226.87768555 303.18530273 C226.87768555 303.84530273 226.87768555 304.50530273 226.87768555 305.18530273 C227.53768555 305.18530273 228.19768555 305.18530273 228.87768555 305.18530273 C259.81494733 337.82313281 267.96924916 380.88378035 267.00952148 424.35083008 C265.64791337 463.95345429 246.83415249 501.6391522 218.3190918 528.66235352 C177.18990712 566.29145483 120.72940132 578.31881709 66.54541016 578.34643555 C64.412078 578.35107211 62.27874666 578.35609788 60.14541626 578.36148071 C54.38783697 578.37451259 48.63026928 578.3810297 42.87267756 578.38549137 C39.27396348 578.38843269 35.6752525 578.39253911 32.07653999 578.39699554 C20.81052731 578.41063648 9.54452181 578.42032382 -1.72149855 578.42419744 C-14.71868039 578.42869177 -27.71575778 578.4463174 -40.71290785 578.47519803 C-50.77344862 578.49677805 -60.83395988 578.50689949 -70.89452356 578.50823855 C-76.89946584 578.50928778 -82.90430947 578.51522261 -88.90922737 578.53305817 C-94.54573247 578.54947857 -100.18206401 578.55172385 -105.81858444 578.54291916 C-107.88905615 578.54214596 -109.959537 578.54652848 -112.02998543 578.55637741 C-114.85040499 578.56901078 -117.6702014 578.56326762 -120.49061584 578.55279541 C-121.3144327 578.56085181 -122.13824956 578.56890822 -122.98703057 578.57720876 C-126.26593338 578.54862156 -128.68385871 578.42169684 -131.59929562 576.84983444 C-134.98263503 573.15212855 -134.26507069 568.48675582 -134.25653553 563.78667164 C-134.25888776 562.91511445 -134.26123999 562.04355727 -134.2636635 561.14558926 C-134.27036831 558.19867582 -134.26989483 555.25180631 -134.26948547 552.30488586 C-134.27278321 550.18117731 -134.27650858 548.05746938 -134.28062695 545.93376225 C-134.29066593 540.07681553 -134.29436682 534.21987905 -134.29701626 528.36292493 C-134.30091387 522.05381481 -134.31049278 515.74471284 -134.31922913 509.43560791 C-134.33807663 494.90676357 -134.34825358 480.3779202 -134.35668981 465.84906667 C-134.36089596 458.66764713 -134.3661181 451.48622843 -134.37137434 444.3048096 C-134.3892687 419.7174133 -134.40426282 395.13001677 -134.41169453 370.54261494 C-134.41216928 368.99854962 -134.41264517 367.45448431 -134.41312219 365.910419 C-134.41335856 365.14470279 -134.41359494 364.37898658 -134.41383848 363.59006685 C-134.41503967 359.71059795 -134.41625512 355.83112905 -134.41748047 351.95166016 C-134.41772062 351.18176729 -134.41796077 350.41187442 -134.4182082 349.61865146 C-134.42609542 324.6750788 -134.44951318 299.73155378 -134.48203641 274.78800191 C-134.51636502 248.41158138 -134.53604865 222.0351887 -134.53933877 195.65874547 C-134.5397563 192.76070383 -134.54023586 189.86266221 -134.54076195 186.96462059 C-134.54088514 186.25105006 -134.54100833 185.53747953 -134.54113526 184.80228565 C-134.54346393 173.3360937 -134.55910576 161.86995719 -134.57960379 150.40378497 C-134.59990027 138.86683378 -134.60498879 127.32997349 -134.59583316 115.79300312 C-134.59129151 109.54703528 -134.59316711 103.30124677 -134.6125946 97.05530357 C-134.63024871 91.32989217 -134.62920997 85.60479064 -134.61369731 79.87937584 C-134.61132465 77.81526071 -134.6156269 75.75112399 -134.62752596 73.6870418 C-134.74226663 52.4571311 -131.31840409 33.21961084 -116.12231445 17.18530273 C-101.93190462 3.94867455 -86.60223822 0.77434057 -67.6887207 0.50952148 C-66.03990978 0.47699188 -64.39111136 0.44382338 -62.74232483 0.41007996 C-41.83167307 0.01531751 -20.91365056 -0.00174068 0 0 Z "
        fill="#FEFEFE" transform="translate(1782.122314453125,320.814697265625)" />
    <path
        d="M0 0 C11.4752585 10.9476604 19.64954608 24.11066122 25 39 C25.38067627 40.05405029 25.38067627 40.05405029 25.76904297 41.12939453 C33.69481169 63.71072817 35.61531943 87.18487372 35.48583984 110.95703125 C35.48799409 113.31079824 35.49188412 115.66456416 35.49734497 118.01832581 C35.50689809 124.31229087 35.4919233 130.60596484 35.47143888 136.89989471 C35.45548717 142.84318393 35.4571187 148.78646201 35.45798953 154.72976685 C35.45898323 166.48119013 35.44085761 178.23250313 35.41162109 189.98388672 C35.38330611 201.37095134 35.3692867 212.75791925 35.37060547 224.14501953 C35.37068538 224.85012173 35.37076529 225.55522393 35.37084763 226.28169286 C35.37092834 226.98562504 35.37100905 227.68955722 35.3710922 228.41482067 C35.37253992 242.09071482 35.35859498 255.76655937 35.34019899 269.44244003 C35.33593529 273.37704392 35.33451662 277.31164035 35.33372116 281.24624634 C35.33171827 287.40576036 35.31955804 293.56517274 35.29938889 299.72465324 C35.29353227 301.98744014 35.29108948 304.25023873 35.29224396 306.51303291 C35.29322059 309.59131737 35.28196242 312.6693141 35.26742554 315.74755859 C35.27052274 316.65033948 35.27361995 317.55312037 35.276811 318.48325825 C35.27036211 319.30511207 35.26391322 320.12696589 35.25726891 320.97372437 C35.25586006 321.68397451 35.25445121 322.39422466 35.25299966 323.12599754 C35 325 35 325 33 328 C30.22395126 328.92534958 28.54153159 329.13098474 25.67480469 329.14526367 C24.80249207 329.15164352 23.93017944 329.15802338 23.03143311 329.16459656 C22.08777893 329.16570938 21.14412476 329.1668222 20.171875 329.16796875 C18.70007782 329.17296135 18.70007782 329.17296135 17.19854736 329.17805481 C15.11381498 329.18312366 13.02907447 329.18546315 10.94433594 329.18530273 C7.80389308 329.18746293 4.66381694 329.20554526 1.5234375 329.22460938 C-36.46762451 329.33437573 -36.46762451 329.33437573 -49.25390625 317 C-59.39415988 305.38521285 -60.4539561 291.81192327 -60.67211914 276.99731445 C-60.70452458 275.45513501 -60.73781697 273.91297398 -60.77193546 272.37083149 C-60.8715988 267.58080975 -60.94062395 262.79067382 -61 258 C-61.00938646 257.25339599 -61.01877292 256.50679198 -61.02844381 255.73756361 C-61.14541362 246.0794922 -61.19825433 236.42146148 -61.22979546 226.76277733 C-61.2457513 221.88758109 -61.26966382 217.01244031 -61.29469299 212.13728333 C-61.36466137 198.30745977 -61.42595993 184.47761226 -61.47680664 170.64770508 C-61.5052206 162.93767806 -61.54061541 155.22771406 -61.58346039 147.51775342 C-61.60991415 142.68703515 -61.62800694 137.85638712 -61.63949764 133.02561128 C-61.64870688 130.020314 -61.66609942 127.01510311 -61.68567657 124.00985718 C-61.69653909 121.98517761 -61.69789386 119.96045374 -61.69880676 117.93574524 C-61.83366474 100.73974595 -63.56013343 82.43986657 -76.3125 69.6875 C-88.85707256 61.81067537 -100.95574372 61.85617712 -115.1640625 64.96875 C-126.69685734 68.06921623 -135.90894459 73.32431849 -145 81 C-145.65484375 81.54140625 -146.3096875 82.0828125 -146.984375 82.640625 C-164.79024329 98.81292739 -173.48558468 126.99409664 -177 150 C-177.17287537 151.05717728 -177.34575073 152.11435455 -177.52386475 153.2035675 C-178.37103573 160.11734895 -178.13583747 167.11294755 -178.12597656 174.06713867 C-178.12737303 175.69565377 -178.12927346 177.32416851 -178.13163757 178.9526825 C-178.13611737 182.44697041 -178.13799027 185.94124663 -178.13809967 189.43553734 C-178.13924387 194.96139353 -178.15210834 200.48718352 -178.16766357 206.01301575 C-178.17023643 206.94705315 -178.17280928 207.88109056 -178.1754601 208.84343213 C-178.18072589 210.75249932 -178.18601138 212.66156645 -178.19131613 214.57063353 C-178.22639641 227.42690133 -178.25297175 240.28308458 -178.25048828 253.1394043 C-178.24890075 261.82485305 -178.26490368 270.51007398 -178.30119491 279.19544965 C-178.31966101 283.78819977 -178.32899131 288.38056934 -178.31671906 292.97334862 C-178.30529809 297.28854674 -178.31694844 301.60306186 -178.34635353 305.91816902 C-178.35300209 307.50120686 -178.35111356 309.08430707 -178.34005547 310.66732025 C-178.32620592 312.82921843 -178.34304665 314.98880294 -178.36749268 317.15055847 C-178.36969252 318.96427083 -178.36969252 318.96427083 -178.3719368 320.81462383 C-179.18633334 324.94503511 -180.7202427 326.4369288 -184 329 C-186.99469597 329.47950318 -189.41213493 329.6561714 -192.39868164 329.59936523 C-193.23179367 329.60330795 -194.0649057 329.60725067 -194.92326355 329.61131287 C-197.66951158 329.6180108 -200.41408688 329.58888887 -203.16015625 329.55859375 C-205.07156553 329.55434231 -206.98297998 329.55201493 -208.89439392 329.55152893 C-212.89671287 329.54536712 -216.89847137 329.52268335 -220.90063477 329.48706055 C-226.03103584 329.44175787 -231.16092987 329.42703273 -236.29151249 329.42332363 C-240.23690288 329.41889527 -244.18218685 329.40359231 -248.12753105 329.3844471 C-250.01936404 329.37556794 -251.91120836 329.36883646 -253.80305672 329.36428642 C-256.44580295 329.35524415 -259.08809087 329.33285424 -261.73071289 329.30639648 C-262.90360367 329.30539948 -262.90360367 329.30539948 -264.10018921 329.30438232 C-270.91065346 329.21027485 -270.91065346 329.21027485 -274 327 C-275.58425909 323.83148182 -275.14644856 320.41914185 -275.14476013 316.93943787 C-275.14828698 316.09626119 -275.15181382 315.25308452 -275.15544754 314.38435704 C-275.16617267 311.54195849 -275.1698223 308.69959341 -275.17358398 305.85717773 C-275.1798869 303.82537697 -275.18665241 301.79357759 -275.19384766 299.76177979 C-275.20854419 295.37525661 -275.22025873 290.98873885 -275.22979546 286.60220146 C-275.24523949 279.65372595 -275.2691934 272.70529613 -275.29469299 265.7568512 C-275.36590234 245.99361058 -275.42547697 226.23034287 -275.47680664 206.46704102 C-275.50521032 195.56001401 -275.54065382 184.65303155 -275.58346039 173.74605137 C-275.61009177 166.85306335 -275.62808443 159.96012575 -275.63949764 153.06709659 C-275.64869633 148.75274748 -275.66609298 144.4384588 -275.68567657 140.12414551 C-275.69308098 138.13978602 -275.69722878 136.15541093 -275.69767189 134.17103767 C-275.44725762 101.84836199 -275.44725762 101.84836199 -289.8828125 73.96875 C-299.02967242 65.50342082 -309.01687106 62.52269396 -321.38671875 62.7578125 C-339.51485033 63.97288727 -353.05956623 73.25728712 -364.984375 86.14453125 C-377.07571465 100.64859234 -384.28175637 119.19804192 -388.8125 137.3125 C-389.0074707 138.06813232 -389.20244141 138.82376465 -389.40332031 139.60229492 C-394.08492666 159.77572473 -393.25087848 180.82555052 -393.13692474 201.39004469 C-393.1166725 205.54399638 -393.10988701 209.69796876 -393.10205078 213.85195923 C-393.080063 224.35968909 -393.04087946 234.8673293 -393 245.375 C-392.95580184 256.77381564 -392.9147806 268.17259713 -392.89316368 279.57148135 C-392.88324019 284.49787578 -392.86358998 289.42410368 -392.83630371 294.3504312 C-392.82135606 297.40888086 -392.8147484 300.46730796 -392.8103714 303.52578926 C-392.80663864 304.93870596 -392.79945926 306.35161859 -392.78850555 307.76449776 C-392.68246567 321.88891116 -392.68246567 321.88891116 -395 327 C-398.33674555 329.9403918 -402.96372569 329.28090825 -407.19335938 329.25878906 C-408.01657181 329.2622937 -408.83978424 329.26579834 -409.6879425 329.26940918 C-412.40663101 329.27820512 -415.12505888 329.27238489 -417.84375 329.265625 C-419.73417206 329.26697226 -421.62459378 329.26891331 -423.51501465 329.27142334 C-427.47602641 329.27437171 -431.43694795 329.27008617 -435.39794922 329.26074219 C-440.47565646 329.24934784 -445.55315226 329.25590885 -450.63085175 329.26788712 C-454.53417555 329.27511345 -458.43744922 329.27281422 -462.34077454 329.26763153 C-464.21307907 329.26629718 -466.08538816 329.26793526 -467.95768738 329.27259064 C-470.57412784 329.27766854 -473.19022568 329.26992785 -475.80664062 329.25878906 C-476.58078812 329.26283752 -477.35493561 329.26688599 -478.15254211 329.27105713 C-484.89890829 329.21783848 -484.89890829 329.21783848 -488 327 C-489.31788551 324.36422897 -489.12785526 322.40569479 -489.13142776 319.45237827 C-489.13526891 318.26589178 -489.13911005 317.07940528 -489.1430676 315.85696465 C-489.14220112 314.54191427 -489.14133463 313.22686389 -489.14044189 311.8719635 C-489.14302411 310.46994251 -489.14603686 309.06792226 -489.1494453 307.66590303 C-489.15753529 303.79967479 -489.15930597 299.93346509 -489.16004276 296.06722939 C-489.16188982 291.90288233 -489.16943532 287.73854497 -489.17617798 283.57420349 C-489.18977535 274.46284215 -489.19578802 265.3514852 -489.20018864 256.2401154 C-489.20294832 250.55513557 -489.20718513 244.87015744 -489.21169281 239.18517876 C-489.22388661 223.45668297 -489.23418616 207.72818856 -489.2375679 191.99968815 C-489.23778747 190.99252525 -489.23800703 189.98536235 -489.23823325 188.94767937 C-489.23845153 187.93805963 -489.23866981 186.92843989 -489.2388947 185.88822562 C-489.23933817 183.84223179 -489.23978474 181.79623796 -489.24023438 179.75024414 C-489.2404558 178.73535305 -489.24067723 177.72046196 -489.24090537 176.6748166 C-489.24485575 160.21964018 -489.26231657 143.76450798 -489.2855939 127.30934865 C-489.30927896 110.43027385 -489.32176843 93.55122127 -489.32293582 76.67212957 C-489.32385411 67.18895303 -489.32964516 57.70583413 -489.34775543 48.22267342 C-489.36311799 40.14967732 -489.36829968 32.07675665 -489.36001733 24.00374872 C-489.3560973 19.88188895 -489.3571059 15.76018127 -489.37107468 11.63834 C-489.38373298 7.8688619 -489.38268795 4.09965144 -489.37048396 0.33017414 C-489.36757534 -1.68763486 -489.37952352 -3.70544814 -489.39190602 -5.72322124 C-489.38531618 -6.91231549 -489.37872633 -8.10140973 -489.3719368 -9.32653713 C-489.37253389 -10.35715312 -489.37313097 -11.38776912 -489.37374616 -12.4496159 C-489 -15 -489 -15 -487.61205077 -16.830782 C-485.42826369 -18.41467948 -483.97663826 -18.38054888 -481.29174805 -18.38818359 C-480.33612473 -18.39764008 -479.3805014 -18.40709656 -478.3959198 -18.4168396 C-477.36163345 -18.41076691 -476.32734711 -18.40469421 -475.26171875 -18.3984375 C-474.18936478 -18.40130768 -473.1170108 -18.40417786 -472.01216125 -18.40713501 C-469.7349088 -18.40917921 -467.45763893 -18.40362459 -465.18041992 -18.39111328 C-461.7390055 -18.3752376 -458.29879682 -18.39086021 -454.85742188 -18.41015625 C-424.65166046 -18.43983453 -424.65166046 -18.43983453 -413 -10 C-412.41089844 -9.5771875 -411.82179688 -9.154375 -411.21484375 -8.71875 C-402.25584196 -1.04543639 -397.5956875 12.41890646 -393 23 C-392.43623657 22.36723145 -392.43623657 22.36723145 -391.86108398 21.72167969 C-368.70717432 -4.0818913 -340.20601388 -23.67311312 -304.68847656 -26.23925781 C-283.17213693 -27.3064301 -260.67926771 -25.45909553 -241 -16 C-239.41445312 -15.26523438 -239.41445312 -15.26523438 -237.796875 -14.515625 C-219.63438916 -5.47742115 -207.49889566 9.10240929 -197.75390625 26.55078125 C-195.7822744 29.30403998 -195.16767038 29.41866723 -192 30 C-191.10539062 29.03320312 -190.21078125 28.06640625 -189.2890625 27.0703125 C-186.13463146 23.66834625 -182.96474576 20.28123134 -179.78613281 16.90185547 C-178.29699796 15.31624031 -176.8155039 13.72345362 -175.3359375 12.12890625 C-132.26990133 -32.88158305 -47.88657133 -42.84587961 0 0 Z "
        fill="#894eef" transform="translate(3783,1667)" />
    <path
        d="M0 0 C1.14641968 -0.00335861 2.29283936 -0.00671722 3.47399902 -0.01017761 C7.24586082 -0.01963477 11.01767787 -0.02162899 14.78955078 -0.02270508 C16.77103375 -0.02510874 18.75251672 -0.02751464 20.73399937 -0.03016549 C26.97273459 -0.0382858 33.21145541 -0.04075249 39.45019531 -0.04003906 C45.80621944 -0.03944327 52.16215733 -0.04990006 58.51815975 -0.06578273 C64.03213314 -0.07905144 69.54607911 -0.08421483 75.06006825 -0.08358365 C78.32713741 -0.08333362 81.59411532 -0.08688209 84.86117172 -0.0967617 C134.91952692 -0.23381193 184.02113224 3.79991871 221.23486328 40.77026367 C226.84812599 46.496621 232.00709728 52.21970323 236.10986328 59.14526367 C236.68607422 60.05018555 237.26228516 60.95510742 237.85595703 61.88745117 C254.31178679 88.5706676 258.80492318 122.98178762 251.94824219 153.46875 C244.68528557 182.50520187 228.2241445 205.42673245 205.67626953 224.79760742 C204.7973793 225.55375986 203.92968477 226.32544218 203.10986328 227.14526367 C204.19783203 227.69053711 205.28580078 228.23581055 206.40673828 228.79760742 C215.68682195 233.52665668 224.07518133 238.4610438 232.10986328 245.14526367 C233.04314453 245.91483398 233.97642578 246.6844043 234.93798828 247.47729492 C258.44574994 267.80034585 269.96002052 297.36483097 272.9465332 327.82861328 C275.53571684 364.55322244 266.99289727 399.54763064 242.78564453 427.86401367 C240.59845524 430.32970755 238.36764414 432.74426537 236.10986328 435.14526367 C235.58392578 435.7356543 235.05798828 436.32604492 234.51611328 436.93432617 C210.50140702 462.78689261 172.02956499 474.75341816 138.10986328 479.14526367 C137.14135516 479.27698786 137.14135516 479.27698786 136.15328121 479.41137314 C127.47530955 480.44081187 118.76369805 480.30119491 110.03979492 480.30639648 C108.22054953 480.31103184 106.4013051 480.31605746 104.58206177 480.32144165 C99.66732034 480.33448619 94.75259251 480.3409933 89.8378365 480.34545231 C86.76663422 480.34839191 83.69543559 480.35249805 80.62423515 480.35695648 C71.01181401 480.37060155 61.3994013 480.38028656 51.78697115 480.38415837 C40.69371852 480.38865196 29.60058831 480.40627235 18.50737292 480.43515897 C9.9237534 480.45673608 1.34016848 480.46686029 -7.24347788 480.46819949 C-12.3681511 480.46924905 -17.49270877 480.47519061 -22.61735344 480.4930191 C-27.42812425 480.50943429 -32.23869169 480.51168743 -37.04948044 480.5028801 C-38.81720968 480.50210658 -40.5849496 480.50649362 -42.3526516 480.51633835 C-44.7597965 480.52896222 -47.16621025 480.52323427 -49.573349 480.51275635 C-50.62974757 480.52484095 -50.62974757 480.52484095 -51.70748752 480.53716969 C-56.35338305 480.48964704 -56.35338305 480.48964704 -58.56826842 479.06856745 C-60.60312416 476.10787481 -60.26766965 473.56246885 -60.27045345 470.00046635 C-60.27511337 469.26446905 -60.27977329 468.52847174 -60.28457442 467.77017149 C-60.29660095 465.28427099 -60.28709978 462.79890937 -60.27781677 460.31300354 C-60.2819864 458.52055032 -60.28746187 456.72809974 -60.29413658 454.9356541 C-60.30865972 449.9944612 -60.30432506 445.0534341 -60.29696977 440.11223185 C-60.29225703 434.78888078 -60.30473143 429.46556658 -60.31498718 424.14222717 C-60.33222063 413.70507636 -60.33300541 403.26798562 -60.32777428 392.83082426 C-60.32373807 384.34605637 -60.32516961 375.86130627 -60.33052254 367.37653923 C-60.33127096 366.17035287 -60.33201938 364.96416652 -60.33279048 363.72142906 C-60.33432193 361.27121043 -60.33586028 358.82099181 -60.33740545 356.37077319 C-60.35114812 333.36792759 -60.34568148 310.36511595 -60.33422024 287.36227112 C-60.32429655 266.32199114 -60.33721047 245.28179921 -60.36115443 224.24153281 C-60.38554679 202.64457372 -60.3951523 181.04765564 -60.3885017 159.45068306 C-60.38500844 147.323013 -60.38724813 135.19541058 -60.40475273 123.06775093 C-60.41947683 112.73803201 -60.42010789 102.4084283 -60.40268182 92.07871164 C-60.39416926 86.80941366 -60.39202842 81.54032148 -60.40733337 76.27103424 C-60.4211837 71.44263792 -60.41641261 66.61462363 -60.39709414 61.78624939 C-60.39333474 60.0438771 -60.39625434 58.30147419 -60.40670579 56.55912919 C-60.4978801 40.18917771 -56.92765821 26.20882355 -45.63232422 13.80151367 C-32.50257055 1.31941601 -17.26190886 -0.00737415 0 0 Z M39.60986328 88.27026367 C39.00142578 88.9534668 38.39298828 89.63666992 37.76611328 90.34057617 C31.71567002 100.58637396 32.68691682 112.02955332 32.74658203 123.52026367 C32.74710129 125.49658203 32.74658106 127.4729009 32.74507141 129.44921875 C32.74516073 133.57112432 32.75551381 137.69283263 32.77368164 141.81469727 C32.79648696 147.10542967 32.7968871 152.39587734 32.79016399 157.68664551 C32.78683049 161.75802152 32.79344041 165.82933217 32.80329323 169.9006958 C32.80714728 171.85280008 32.8082926 173.80491161 32.80670738 175.75701904 C32.80633812 178.47381611 32.81891371 181.19024108 32.83520508 183.90698242 C32.83272766 184.71629715 32.83025024 185.52561188 32.82769775 186.35945129 C32.70096198 190.7191652 32.70096198 190.7191652 35.10986328 194.14526367 C38.31636576 194.46763068 38.31636576 194.46763068 42.15136719 194.43579102 C42.87698349 194.44250824 43.60259979 194.44922546 44.35020447 194.45614624 C46.76234722 194.47521921 49.17421215 194.47905757 51.58642578 194.48120117 C53.27159742 194.48763167 54.95676794 194.49436022 56.64193726 194.50137329 C60.18791277 194.51337552 63.73379076 194.517052 67.27978516 194.51586914 C71.78036411 194.51566783 76.2802981 194.542759 80.78072548 194.57741356 C84.27107484 194.59989984 87.76127561 194.60369983 91.25168991 194.60264969 C92.90755777 194.60498127 94.5634313 194.61366366 96.21922684 194.62931442 C114.50334047 194.78569419 131.07824973 191.83003402 144.98486328 178.89526367 C157.03324751 166.01896154 160.65794161 149.08390463 160.39111328 131.96557617 C159.80622346 117.37257508 154.62875732 104.02200647 144.55908203 93.40307617 C135.30281627 84.87018684 122.65014186 80.08696455 110.1171875 79.96826172 C108.93180389 79.95542648 107.74642029 79.94259125 106.52511597 79.92936707 C105.25112946 79.92198013 103.97714294 79.9145932 102.66455078 79.90698242 C101.68254385 79.90086913 101.68254385 79.90086913 100.68069839 79.89463234 C97.212103 79.87382351 93.7435465 79.85950223 90.27490234 79.85009766 C86.72114468 79.83907276 83.16801994 79.80470456 79.61448479 79.76492596 C76.85695361 79.73857384 74.09956872 79.73038932 71.34192276 79.72681618 C69.40395372 79.71967371 67.46608547 79.69331459 65.52828979 79.66642761 C56.21565061 79.68905057 45.99869616 80.67651933 39.60986328 88.27026367 Z M41.23486328 275.64526367 C40.18685547 276.52698242 40.18685547 276.52698242 39.11767578 277.42651367 C33.70457582 284.7563144 32.51772276 293.11844093 32.62402344 302.00097656 C32.62022675 303.02349518 32.61643005 304.04601379 32.61251831 305.09951782 C32.60517904 308.43930901 32.6263893 311.77820773 32.64892578 315.11791992 C32.65131266 317.45153196 32.65221501 319.78514595 32.65170288 322.11875916 C32.65481871 326.98798806 32.67130002 331.85691996 32.69824219 336.72607422 C32.73239055 342.97747462 32.7398653 349.22855204 32.73835182 355.48003483 C32.7388943 360.2882955 32.74983908 365.09648511 32.76435471 369.90472221 C32.77072926 372.21129253 32.77466313 374.51787089 32.77614212 376.82444954 C32.78045847 380.03447489 32.7979185 383.2441508 32.81933594 386.45410156 C32.81842957 387.41145706 32.81752319 388.36881256 32.81658936 389.35517883 C32.82511932 390.22551758 32.83364929 391.09585632 32.84243774 391.99256897 C32.84578943 392.75074449 32.84914112 393.50892 32.85259438 394.29007053 C32.95388678 396.39147094 32.95388678 396.39147094 35.10986328 398.14526367 C40.59492502 399.08910789 45.93752262 399.28093172 51.4909668 399.23046875 C52.68552742 399.22569519 52.68552742 399.22569519 53.90422058 399.2208252 C56.51581687 399.20832493 59.12724239 399.18742152 61.73876953 399.16479492 C63.08978414 399.15435937 63.08978414 399.15435937 64.46809196 399.143713 C69.23816131 399.10642598 74.00811661 399.06249802 78.77807617 399.01318359 C83.66393133 398.96398796 88.54962364 398.93767532 93.4356699 398.91675282 C97.22891982 398.89621735 101.02186146 398.85828165 104.81492424 398.81589317 C106.61389153 398.79873529 108.41293225 398.78790047 110.21197701 398.78394508 C128.379384 398.73231156 145.39959789 396.02393597 159.27001953 383.11791992 C162.70488602 379.43510129 165.46363451 375.419442 168.10986328 371.14526367 C168.57392578 370.40920898 169.03798828 369.6731543 169.51611328 368.91479492 C178.69146933 352.66210631 179.86238172 330.57426498 175.01269531 312.81201172 C170.30582947 297.39614429 161.92800425 284.83432413 147.89892578 276.57495117 C135.21050198 270.07080116 122.66016649 268.82900025 108.60986328 268.84448242 C107.12353396 268.84058523 105.63720574 268.8362485 104.15087891 268.83149719 C101.05123262 268.82407923 97.95170035 268.82429451 94.85205078 268.82958984 C90.90496935 268.83538839 86.95835657 268.81842287 83.01135254 268.79524517 C79.9467502 268.78042702 76.88225878 268.77964687 73.81762695 268.7827549 C72.36335317 268.78224606 70.90907245 268.77709177 69.45483398 268.76694298 C59.49842641 268.70595383 49.08375581 268.65530655 41.23486328 275.64526367 Z "
        fill="#4a238e" transform="translate(79.89013671875,1513.854736328125)" />
    <path
        d="M0 0 C1.03788564 0.9230363 2.0756455 1.84621405 3.11328125 2.76953125 C5.91953373 5.40761135 5.91953373 5.40761135 10 5 C11.559584 3.25861992 11.559584 3.25861992 12.8125 0.9375 C19.4257221 -9.54166038 27.48215719 -14.61709332 39.56419373 -17.57142639 C44.42949437 -18.42746305 49.34294773 -18.30483148 54.26953125 -18.30078125 C55.42748703 -18.30506638 56.58544281 -18.3093515 57.77848816 -18.31376648 C60.21324003 -18.31948603 62.64800898 -18.32002765 65.08276367 -18.31567383 C68.81783738 -18.31249546 72.55213238 -18.33606694 76.28710938 -18.36132812 C78.656249 -18.36359942 81.02539076 -18.36430541 83.39453125 -18.36328125 C84.51326126 -18.372491 85.63199127 -18.38170074 86.78462219 -18.39118958 C88.33719978 -18.38184639 88.33719978 -18.38184639 89.92114258 -18.37231445 C90.83189041 -18.37294388 91.74263824 -18.3735733 92.6809845 -18.3742218 C95.47460875 -17.92341192 96.32266074 -17.24202312 98 -15 C99.17626411 -11.47120768 99.12711095 -8.70458504 99.12939453 -4.97705078 C99.13111569 -4.24420711 99.13283686 -3.51136343 99.13461018 -2.75631237 C99.13903038 -0.23595807 99.13593722 2.2843319 99.1328125 4.8046875 C99.13396587 6.68284629 99.13544815 8.5610049 99.13722229 10.43916321 C99.1403361 15.77296952 99.13580853 21.10674567 99.12917709 26.44054794 C99.1249946 29.8794426 99.12202357 33.31833657 99.11929321 36.75723267 C99.10580055 52.07067723 99.07538352 67.38405624 99.03846264 82.69745922 C99.01508541 92.39972311 98.99332725 102.10198749 98.97393799 111.80426025 C98.91976044 138.68212076 98.85216612 165.55989354 98.76107025 192.4376564 C98.71842257 205.07551641 98.68030162 217.71335147 98.65411377 230.35125732 C98.63126903 241.31541464 98.59778955 252.27948073 98.55149907 263.24356502 C98.52773414 268.94183726 98.50871137 274.64002216 98.50235176 280.33834267 C98.49626411 285.64268587 98.47615665 290.94679929 98.44571662 296.25105691 C98.43704112 298.17085808 98.4332012 300.09068931 98.43499398 302.01050925 C98.4455665 318.57354801 96.90455973 334.94229087 92.375 350.9375 C91.99649902 352.28835693 91.99649902 352.28835693 91.61035156 353.66650391 C85.1455904 375.75507848 74.57407656 395.09717179 59 412 C58.13761719 412.94488281 57.27523437 413.88976563 56.38671875 414.86328125 C21.90183668 450.98300217 -31.9044607 465.15387091 -80.3269043 466.92749023 C-122.72569047 467.89517174 -163.58233816 457.16897397 -201.9375 439.625 C-202.62336182 439.31570557 -203.30922363 439.00641113 -204.01586914 438.68774414 C-210.40293611 435.64506348 -210.40293611 435.64506348 -212 432 C-211.83477843 425.93128479 -210.09364812 421.16857252 -207.625 415.6875 C-206.89591906 414.02584232 -206.1695198 412.36300631 -205.4453125 410.69921875 C-205.0524707 409.7973584 -204.65962891 408.89549805 -204.25488281 407.96630859 C-202.87889807 404.71373766 -201.58631926 401.43539256 -200.3046875 398.14453125 C-199.60738525 396.37106323 -199.60738525 396.37106323 -198.89599609 394.56176758 C-197.9888031 392.24714032 -197.0926503 389.92814472 -196.20947266 387.60424805 C-192.61357407 378.52153905 -188.0804636 368.87199131 -179.3125 363.8125 C-167.15280279 358.75463328 -154.2227246 363.39290602 -142.25 366.8125 C-139.00802731 367.72523503 -135.76334747 368.62747223 -132.515625 369.51953125 C-131.72480026 369.73692459 -130.93397552 369.95431793 -130.1191864 370.17829895 C-99.07143283 378.51106535 -63.55657516 380.03694021 -34.1875 365.25 C-28.42849475 361.91629011 -23.69775375 357.68115391 -19 353 C-18.43539062 352.45859375 -17.87078125 351.9171875 -17.2890625 351.359375 C-5.86146947 339.38761087 -2.25138532 321.97263655 -2 306 C-2.17282489 303.25891686 -2.51276845 300.70684196 -3 298 C-3.72960938 298.4846875 -4.45921875 298.969375 -5.2109375 299.46875 C-27.58608555 313.83304257 -54.28764262 323.1708715 -81 324 C-82.13050781 324.03996094 -83.26101562 324.07992188 -84.42578125 324.12109375 C-125.16416313 324.85240578 -162.86879774 309.22897552 -192.4831543 281.49389648 C-226.31862979 248.83410977 -241.27725447 201.09649398 -243 155 C-243.02723145 154.28537598 -243.05446289 153.57075195 -243.08251953 152.83447266 C-244.58791822 106.73518842 -231.84991242 58.17876336 -201 23 C-200.30519531 22.17242188 -199.61039063 21.34484375 -198.89453125 20.4921875 C-152.2747432 -33.68527111 -56.60416021 -43.48760999 0 0 Z M-121 81 C-138.45511589 101.36430187 -142.25889325 131.16471299 -141 157 C-139.06324968 180.33924484 -130.108641 205.75406816 -112.1484375 221.5 C-96.9877831 233.40914454 -79.39055527 238.5568475 -60.1875 236.375 C-43.54014283 234.1408869 -27.90664126 228.37015366 -17 215 C-12.10625982 208.34191327 -8.50984962 201.47871646 -5.6875 193.75 C-5.45724121 193.13261963 -5.22698242 192.51523926 -4.98974609 191.87915039 C-0.48719295 178.63741578 0.49772788 164.91590113 0.39111328 151.04370117 C0.37502912 148.56698389 0.39107296 146.09190291 0.41015625 143.61523438 C0.44251667 120.25288634 -3.7388205 97.08717323 -20.0625 79.3125 C-32.04623827 67.99790447 -47.6574972 62.58547907 -64 62 C-64.99257812 61.96003906 -65.98515625 61.92007812 -67.0078125 61.87890625 C-87.13947433 61.46657101 -106.68811723 66.0593525 -121 81 Z "
        fill="#4a238e" transform="translate(2283,1665)" />
    <path
        d="M0 0 C0.79888641 -0.00095673 1.59777283 -0.00191345 2.42086792 -0.00289917 C4.12058592 -0.0035804 5.82030651 -0.00173006 7.52001953 0.00244141 C10.05898305 0.00769213 12.59776149 0.00254662 15.13671875 -0.00390625 C44.73336789 -0.01964559 44.73336789 -0.01964559 55.9296875 2.8203125 C56.63077637 2.99401367 57.33186523 3.16771484 58.05419922 3.34667969 C67.69503086 5.91667731 75.3763476 10.76146715 80.9921875 19.1328125 C88.11177676 32.14447564 87.27074633 47.48567771 87.1875 61.85693359 C87.18365458 63.81791023 87.18073032 65.77888886 87.1786499 67.73986816 C87.17236341 71.93746022 87.15988102 76.13497028 87.14251709 80.33253098 C87.1153285 86.97246421 87.10365478 93.61237091 87.09423828 100.25234985 C87.07210775 114.33754024 87.03300118 128.42266574 86.9921875 142.5078125 C86.94810512 157.73730548 86.90698564 172.96677237 86.88535118 188.19631636 C86.87539769 194.79526365 86.85569733 201.39408776 86.82849121 207.99298549 C86.81356575 212.09484944 86.80693972 216.19669651 86.8025589 220.29858398 C86.79881772 222.19848264 86.79162143 224.09837815 86.78069305 225.99824905 C86.7662317 228.59415659 86.7641867 231.18979499 86.76513672 233.78573608 C86.7579468 234.5346683 86.75075687 235.28360051 86.74334908 236.05522764 C86.76199898 240.82236017 87.36953905 244.6908603 88.9921875 249.1328125 C95.63863807 252.45603778 108.26094216 250.83316357 115.1171875 248.5703125 C124.02001403 245.19802972 129.39656176 237.67509625 133.9921875 229.7578125 C135.12041273 227.87771479 136.25071162 225.99886029 137.3828125 224.12109375 C137.96998047 223.14092285 138.55714844 222.16075195 139.16210938 221.15087891 C142.26899699 216.02716697 145.50424586 210.98687054 148.7421875 205.9453125 C149.40694092 204.90842285 150.07169434 203.8715332 150.7565918 202.80322266 C157.13620738 192.87226488 163.59926053 182.99649099 170.0703125 173.125 C172.95587198 168.72153049 175.82738759 164.30947525 178.68139648 159.88549805 C179.99564081 157.84929551 181.31591304 155.81710605 182.63671875 153.78515625 C184.18494989 151.39895524 185.69971139 148.99611646 187.19140625 146.57421875 C188.20654297 144.96353516 188.20654297 144.96353516 189.2421875 143.3203125 C189.80421875 142.40636719 190.36625 141.49242187 190.9453125 140.55078125 C194.07617345 136.85230238 197.52394937 134.5134757 202.32333183 133.77329254 C205.06269507 133.64198968 207.7750921 133.63788692 210.51733398 133.67871094 C212.06968498 133.67783478 212.06968498 133.67783478 213.65339661 133.67694092 C217.05703862 133.67971649 220.45979316 133.71078474 223.86328125 133.7421875 C226.22981793 133.74965173 228.59636081 133.7553438 230.96290588 133.75933838 C237.17891632 133.77458018 243.39455042 133.81385008 249.6104126 133.8581543 C255.95832224 133.899138 262.30629294 133.91735605 268.65429688 133.9375 C281.10042538 133.98034524 293.54627509 134.04857944 305.9921875 134.1328125 C306.60549927 135.92332458 306.60549927 135.92332458 306.9921875 138.1328125 C305.57107614 140.76012706 304.11432696 143.09843975 302.421875 145.54296875 C301.6730455 146.65659035 301.6730455 146.65659035 300.90908813 147.79270935 C299.24020282 150.26841426 297.55369895 152.73158839 295.8671875 155.1953125 C294.68434843 156.94319999 293.5027296 158.69191382 292.32226562 160.44140625 C289.82802107 164.13368463 287.32661674 167.82095645 284.81933594 171.50439453 C281.10454629 176.96318091 277.40856551 182.43446642 273.71875 187.91015625 C273.1225737 188.79484589 272.5263974 189.67953552 271.91215515 190.59103394 C270.70807727 192.37784691 269.50403163 194.16468161 268.30001831 195.95153809 C266.487542 198.63970245 264.67292327 201.32640822 262.85766602 204.01269531 C256.78696061 212.99888157 250.73677531 221.99795902 244.73046875 231.02734375 C244.14333099 231.90981781 243.55619324 232.79229187 242.95126343 233.70150757 C240.17719683 237.87268206 237.40652417 242.0460618 234.640625 246.22265625 C228.60128852 255.32607498 222.4097904 264.29192154 215.9921875 273.1328125 C215.41275391 273.93396484 214.83332031 274.73511719 214.23632812 275.56054688 C211.00839251 280.0041387 207.43214655 283.99441707 203.62890625 287.95703125 C201.75904751 290.44273846 201.2097332 292.04267465 200.9921875 295.1328125 C202.81369076 299.06725954 204.81033381 301.99845462 207.76171875 305.13671875 C211.81283048 309.81882744 214.36670919 315.18504371 217.1171875 320.6953125 C218.26644935 322.95012679 219.41752521 325.20401732 220.5703125 327.45703125 C221.14458984 328.58286621 221.71886719 329.70870117 222.31054688 330.86865234 C226.69696378 339.38293719 231.36399383 347.74840367 235.9921875 356.1328125 C236.86230469 357.71449219 236.86230469 357.71449219 237.75 359.328125 C245.47684202 373.36796136 253.35476757 387.30374942 261.47265625 401.12109375 C264.49861059 406.27457997 267.47654387 411.454355 270.44628906 416.64038086 C276.41420859 427.05287945 282.50413279 437.38063727 288.7421875 447.6328125 C289.10010376 448.22129974 289.45802002 448.80978699 289.82678223 449.41610718 C293.36213176 455.22477054 296.9161796 461.02131805 300.51171875 466.79296875 C301.03217773 467.63214844 301.55263672 468.47132813 302.08886719 469.3359375 C303.03526821 470.85925853 303.98735028 472.3790715 304.94628906 473.89453125 C307.9921875 478.79874026 307.9921875 478.79874026 307.9921875 482.1328125 C253.3297283 483.42216264 253.3297283 483.42216264 230.73535156 482.9916687 C229.0961341 482.9611902 227.45678869 482.93686108 225.81738281 482.91921997 C209.61869547 482.72368228 197.22523074 479.55469988 185.0703125 468.36328125 C174.70822885 457.45457392 168.50560159 442.49449614 161.71508789 429.23608398 C157.88870537 421.76877089 153.98393501 414.35459626 149.9296875 407.0078125 C145.46300241 398.90761029 141.16718407 390.73012933 136.9296875 382.5078125 C135.17477375 379.1190301 133.41764224 375.73141517 131.65869141 372.34472656 C130.57962974 370.26501147 129.50358443 368.1837274 128.43115234 366.10058594 C127.01025692 363.35193801 125.56736116 360.61609981 124.1171875 357.8828125 C123.71363037 357.09181152 123.31007324 356.30081055 122.89428711 355.48583984 C119.27866136 348.76368718 113.59223491 342.33861315 106.2578125 339.5625 C100.65350132 338.4996134 94.65024518 338.60600423 88.9921875 339.1328125 C86.76257516 340.94106739 86.76257516 340.94106739 86.75447178 343.47328663 C86.76021182 344.46048537 86.76595186 345.44768412 86.77186584 346.46479797 C86.773452 347.5962323 86.77503815 348.72766663 86.77667236 349.89338684 C86.78857605 351.14069077 86.80047974 352.38799469 86.81274414 353.6730957 C86.81969296 355.68243949 86.82663931 357.69178329 86.83349311 359.70112741 C86.84276324 361.86508875 86.8569429 364.02897052 86.87242317 366.19289589 C86.90418973 370.70167428 86.91972031 375.21041716 86.93247986 379.71928406 C86.96659694 390.92132722 87.01918302 402.12327509 87.081604 413.32519531 C87.13006038 422.0248747 87.17215145 430.72446675 87.19311231 439.42426175 C87.2046341 443.90554508 87.23004638 448.38646824 87.26585972 452.86762011 C87.289577 456.31317867 87.29375134 459.75871423 87.30102539 463.2043457 C87.31495331 464.44557693 87.32888123 465.68680817 87.3432312 466.96565247 C87.34199753 468.10554626 87.34076385 469.24544006 87.3394928 470.4198761 C87.34485581 471.40820592 87.35021883 472.39653574 87.35574436 473.41481495 C86.84655746 477.22156132 85.38041264 480.04377823 82.33972168 482.42913818 C78.73733476 483.50895511 75.15760948 483.41018875 71.43164062 483.39160156 C70.56941391 483.3951062 69.70718719 483.39861084 68.8188324 483.40222168 C65.9702854 483.41102018 63.121987 483.40519646 60.2734375 483.3984375 C58.29333448 483.39978469 56.31323177 483.40172567 54.33312988 483.40423584 C50.18380585 483.40718455 46.03456793 483.40289754 41.88525391 483.39355469 C36.56541336 483.38216033 31.24577461 483.38872115 25.92594147 483.40069962 C21.83732583 483.407925 17.74875807 483.40562715 13.66014099 483.40044403 C11.69852169 483.39910942 9.73689805 483.40074867 7.77528381 483.40540314 C5.03431677 483.41047946 2.29367703 483.4027425 -0.44726562 483.39160156 C-1.25881607 483.39565002 -2.07036652 483.39969849 -2.9065094 483.40386963 C-9.95243586 483.3507869 -9.95243586 483.3507869 -13.0078125 481.1328125 C-14.5407095 478.06701851 -14.14713383 474.85911004 -14.13924026 471.49525642 C-14.1412929 470.69385799 -14.14334553 469.89245957 -14.14546037 469.06677634 C-14.15116295 466.35261812 -14.14966913 463.63851012 -14.14825439 460.92434692 C-14.15083616 458.97031561 -14.15384879 457.01628483 -14.1572578 455.06225479 C-14.16535311 449.67014732 -14.16711877 444.27805314 -14.16785526 438.88594031 C-14.16970141 433.07943344 -14.17724647 427.27293353 -14.18399048 421.46643066 C-14.1975919 408.76007511 -14.20360122 396.05372271 -14.20800114 383.34736109 C-14.21076029 375.41975366 -14.21499701 367.49214746 -14.21950531 359.56454086 C-14.23169993 337.63303516 -14.24203453 315.70153047 -14.2453804 293.77002144 C-14.24560204 292.35126261 -14.24582382 290.93250377 -14.24604575 289.51374494 C-14.2462664 288.09151534 -14.24648688 286.66928573 -14.2467072 285.24705613 C-14.24714976 282.39370799 -14.24759687 279.54035985 -14.24804688 276.68701172 C-14.24815627 275.97954509 -14.24826566 275.27207846 -14.24837836 274.54317345 C-14.25201039 251.59462645 -14.26793555 228.646111 -14.29123724 205.69757609 C-14.31581488 181.44819783 -14.32955226 157.19883763 -14.33074832 132.94944656 C-14.33166667 119.72543669 -14.33745923 106.50146815 -14.35556793 93.27746964 C-14.37092977 82.01940141 -14.3761126 70.76138728 -14.36782983 59.50331058 C-14.3639095 53.755054 -14.36492003 48.00690649 -14.37888718 42.25866318 C-14.39154348 37.00203486 -14.39050198 31.74559848 -14.37829646 26.48897074 C-14.37632503 24.58183692 -14.37948386 22.67468988 -14.38814083 20.76757468 C-14.39912457 18.18549648 -14.39182364 15.60410879 -14.3797493 13.02205086 C-14.39114209 11.89798087 -14.39114209 11.89798087 -14.40276504 10.7512024 C-14.37109473 7.6379992 -14.18480752 5.45487977 -12.67206645 2.7022351 C-9.0914524 -0.67435092 -4.60798469 -0.01223472 0 0 Z "
        fill="#4a238e" transform="translate(1183.0078125,1512.8671875)" />
    <path
        d="M0 0 C24.72983208 25.7206106 33.00892011 63.77853885 33.02890015 98.43380737 C33.0332824 99.38297881 33.03766465 100.33215025 33.0421797 101.31008446 C33.05542051 104.45656243 33.06171266 107.60301252 33.06787109 110.74951172 C33.07578284 113.01885602 33.08405243 115.28819909 33.09265137 117.55754089 C33.11871736 124.97324445 33.13414973 132.38895328 33.1484375 139.8046875 C33.15380094 142.36245858 33.15917845 144.92022962 33.16456985 147.47800064 C33.18616358 158.1104508 33.20505429 168.7428982 33.21619225 179.3753643 C33.21912142 182.12491739 33.2220832 184.87447044 33.22509766 187.62402344 C33.22584371 188.30732338 33.22658976 188.99062332 33.22735842 189.69462933 C33.24004198 200.79042273 33.27331898 211.88605702 33.31489949 222.98177586 C33.35729839 234.38963523 33.38047587 245.7973735 33.38611281 257.20531857 C33.38977067 263.60443115 33.4018415 270.00327224 33.43421555 276.40230942 C33.4641926 282.41231761 33.47064497 288.42188842 33.45883179 294.43195534 C33.45861028 296.63908452 33.46697867 298.84623347 33.48448563 301.05329323 C33.50705811 304.06209248 33.49893778 307.06928887 33.48300171 310.07809448 C33.4968838 310.95483601 33.51076588 311.83157755 33.52506864 312.734887 C33.46749907 317.13396279 33.29230913 318.84374634 30.48495579 322.41763592 C27.66447901 324.53288245 26.49713571 324.99587053 23.03149414 324.97436523 C22.09604263 324.98044296 21.16059113 324.98652069 20.1967926 324.99278259 C19.19470261 324.97325027 18.19261261 324.95371796 17.16015625 324.93359375 C16.11282822 324.93126236 15.06550018 324.92893097 13.98643494 324.92652893 C11.76813627 324.91679246 9.54986246 324.89500783 7.33178711 324.86206055 C3.98057085 324.81312888 0.63083637 324.80060371 -2.72070312 324.79492188 C-41.91398768 324.5892649 -41.91398768 324.5892649 -56.03515625 310.765625 C-63.91228031 301.75478401 -67.23337069 290.11131377 -67.26976013 278.32037354 C-67.27328698 277.62164147 -67.27681382 276.92290941 -67.28044754 276.20300364 C-67.29110031 273.86742532 -67.29480971 271.53188785 -67.29858398 269.19628906 C-67.30489246 267.5187208 -67.31165859 265.8411542 -67.31884766 264.16358948 C-67.33350526 260.55141803 -67.3452356 256.939253 -67.35479546 253.32706451 C-67.37028797 247.60072333 -67.39424163 241.87443677 -67.41969299 236.14813232 C-67.49077454 219.86425238 -67.55045655 203.5803404 -67.60180664 187.29638672 C-67.6302442 178.30217244 -67.66570291 169.30801181 -67.70846039 160.31385398 C-67.73502832 154.63766398 -67.7530591 148.96153462 -67.76449764 143.28529501 C-67.77372056 139.72809589 -67.79112728 136.17096933 -67.81067657 132.6138134 C-67.81805719 130.98260343 -67.82222729 129.3513747 -67.82267189 127.72014809 C-67.72463983 97.44001242 -67.72463983 97.44001242 -81.125 71.375 C-90.85959189 62.40241139 -104.02045587 61.70506425 -116.640625 62.09765625 C-137.91205581 63.1921086 -155.9978666 72.33881286 -170.70703125 87.5390625 C-188.91735109 108.89720822 -195.62296601 135.507362 -195.50976562 162.99291992 C-195.51388308 164.69158286 -195.51935082 166.39024297 -195.52604675 168.08889771 C-195.53766259 171.7102271 -195.54029603 175.33140456 -195.53569031 178.95274925 C-195.52882109 184.68092358 -195.5448454 190.40890127 -195.56408691 196.13703918 C-195.60494447 209.31287631 -195.6165019 222.48870675 -195.62761688 235.66459656 C-195.63813113 247.78064336 -195.65486673 259.89659418 -195.69571257 272.01258165 C-195.71405494 277.70639724 -195.71796736 283.39998379 -195.71077728 289.09382188 C-195.70925691 292.62749872 -195.720028 296.16106036 -195.73415565 299.69470596 C-195.73816103 301.33258569 -195.73702865 302.97048724 -195.73038292 304.60835838 C-195.72200835 306.84373583 -195.73198214 309.07831511 -195.74645996 311.31364441 C-195.74717247 312.56401584 -195.74788498 313.81438726 -195.74861908 315.10264874 C-196.15892024 318.66991121 -196.91894136 320.56258326 -199.125 323.375 C-202.95443768 324.65147923 -206.56528322 324.53064932 -210.55615234 324.53613281 C-211.41662674 324.54109772 -212.27710114 324.54606262 -213.16365051 324.55117798 C-216.01275428 324.56579373 -218.86180239 324.57260036 -221.7109375 324.578125 C-223.69007367 324.5838766 -225.66920982 324.58963433 -227.64834595 324.59539795 C-231.79942077 324.60590603 -235.95047624 324.61175007 -240.1015625 324.61523438 C-245.42025449 324.62072102 -250.73869073 324.64475355 -256.05730247 324.67320633 C-260.14595284 324.69183018 -264.23454154 324.69703816 -268.32323074 324.69857025 C-270.28403752 324.70159749 -272.24484319 324.70962841 -274.20560837 324.72275543 C-276.9489565 324.73981179 -279.69167893 324.73793678 -282.43505859 324.73144531 C-283.24458481 324.7406601 -284.05411102 324.74987488 -284.88816833 324.7593689 C-289.54194732 324.72487636 -292.44845436 324.26325794 -296.125 321.375 C-296.82819194 318.94882876 -296.82819194 318.94882876 -296.93067455 316.06180668 C-296.97690909 314.9857983 -297.02314362 313.90978993 -297.0707792 312.80117524 C-297.0976185 311.10521849 -297.0976185 311.10521849 -297.125 309.375 C-297.14877138 308.29351177 -297.17254276 307.21202354 -297.19703448 306.09776294 C-297.24652832 302.52642456 -297.24584322 298.95774576 -297.23420715 295.38609314 C-297.23337492 294.01256582 -297.23297815 292.63903819 -297.23297423 291.26551062 C-297.23165329 287.52447775 -297.22399188 283.78348176 -297.21515882 280.04246008 C-297.20668902 275.99554489 -297.20407321 271.94862485 -297.20056152 267.90170288 C-297.19076335 258.15502201 -297.17112583 248.40837053 -297.15030077 238.66170797 C-297.14069617 234.06815469 -297.13213384 229.47459948 -297.12344933 224.88104439 C-297.09418352 209.61193185 -297.06243234 194.34282769 -297.02322865 179.07373714 C-297.01310921 175.12117962 -297.0029975 171.16862208 -296.99291992 167.21606445 C-296.99041305 166.23374391 -296.98790617 165.25142337 -296.98532333 164.23933554 C-296.94507596 148.28597704 -296.92196376 132.33264161 -296.90594129 116.37924223 C-296.88921472 99.99249131 -296.85756053 83.60582361 -296.81105727 67.21912962 C-296.78532266 58.02115557 -296.76617973 48.82326986 -296.76368141 39.62525749 C-296.7615057 31.80313831 -296.74586443 23.98119524 -296.71234892 16.15914487 C-296.69565881 12.1668146 -296.68553137 8.17474362 -296.69265556 4.18237877 C-296.69901889 0.53160375 -296.68715396 -3.11863015 -296.66045066 -6.76930886 C-296.65098226 -8.72298694 -296.66128013 -10.67672951 -296.67216045 -12.63040024 C-296.65406401 -14.35776528 -296.65406401 -14.35776528 -296.635602 -16.12002659 C-296.63354104 -17.11788199 -296.63148009 -18.11573739 -296.62935668 -19.14383084 C-296.125 -21.625 -296.125 -21.625 -294.22124308 -23.44567198 C-291.8782177 -24.76383757 -290.53921658 -24.99962385 -287.86987305 -24.99731445 C-287.03767746 -25.00354324 -286.20548187 -25.00977203 -285.34806824 -25.01618958 C-284.00595024 -25.00237495 -284.00595024 -25.00237495 -282.63671875 -24.98828125 C-281.70132767 -24.98877975 -280.76593658 -24.98927826 -279.80220032 -24.98979187 C-277.8175749 -24.98745128 -275.83294653 -24.97772364 -273.84838867 -24.96118164 C-270.86153441 -24.9378825 -267.87559215 -24.94058458 -264.88867188 -24.94726562 C-245.35538441 -24.91901873 -225.79092029 -24.31765101 -210.5 -10.5625 C-204.28275208 -4.04648273 -200.80592311 4.63419984 -199.125 13.375 C-193.730772 9.03705619 -188.41331158 4.68742338 -183.375 -0.0625 C-135.0249032 -43.76794183 -47.69842554 -44.80536396 0 0 Z "
        fill="#4a238e" transform="translate(1974.125,1671.625)" />
    <path
        d="M0 0 C0.79626297 -0.00705963 1.59252594 -0.01411926 2.41291809 -0.02139282 C36.15153005 -0.25259312 36.15153005 -0.25259312 51.328125 3.203125 C52.20597656 3.40180176 53.08382812 3.60047852 53.98828125 3.80517578 C87.22389035 11.6057275 115.34642809 26.95402965 140.328125 50.203125 C141.04484375 50.85410156 141.7615625 51.50507812 142.5 52.17578125 C171.79777202 79.92312373 190.07935795 123.03156669 191.55078125 163.14672852 C191.69320578 168.64469377 191.71469734 174.14107317 191.703125 179.640625 C191.70230927 181.09903809 191.70230927 181.09903809 191.70147705 182.58691406 C191.6631967 197.47766407 191.02144759 211.70435747 187.328125 226.203125 C187.11913574 227.05052246 186.91014648 227.89791992 186.69482422 228.77099609 C178.7977098 259.89213391 163.29695118 286.09567064 141.328125 309.203125 C140.709375 309.88632813 140.090625 310.56953125 139.453125 311.2734375 C117.41028458 334.79236098 84.85799051 349.77091926 53.703125 356.453125 C53.00082764 356.60418701 52.29853027 356.75524902 51.57495117 356.91088867 C38.11189854 359.60775821 24.71948433 360.61471643 11.015625 360.578125 C10.23976044 360.57758118 9.46389587 360.57703735 8.66452026 360.57647705 C-40.55572958 360.41931424 -87.73031755 343.16450419 -122.921875 308.328125 C-157.25371905 273.56474111 -173.14687748 226.17632038 -172.97460938 177.83789062 C-172.23798854 138.79698629 -161.37727946 100.58416132 -137.671875 69.203125 C-137.02347656 68.33171875 -136.37507813 67.4603125 -135.70703125 66.5625 C-124.73407935 52.49353288 -111.64393746 39.91545678 -96.671875 30.203125 C-96.0231543 29.7798291 -95.37443359 29.3565332 -94.70605469 28.92041016 C-67.04166099 11.15151231 -33.00180126 0.1962722 0 0 Z M-18.671875 89.203125 C-19.74179687 89.55375 -20.81171875 89.904375 -21.9140625 90.265625 C-41.29833282 97.51584559 -55.27930271 112.5332321 -64.42578125 130.68359375 C-77.39078991 159.44056785 -78.45195916 193.4831754 -67.390625 223.05078125 C-62.63604935 234.90709346 -55.7024078 244.27669056 -46.671875 253.203125 C-45.57746094 254.31300781 -45.57746094 254.31300781 -44.4609375 255.4453125 C-29.388366 269.84550162 -8.61557601 276.7826145 11.98608398 276.55419922 C34.9266321 275.80803787 54.11084651 266.13737943 70.328125 250.203125 C70.95332031 249.59082031 71.57851563 248.97851562 72.22265625 248.34765625 C87.66369888 232.00036733 93.29639149 208.0883813 94.328125 186.203125 C94.38097656 185.19765625 94.43382812 184.1921875 94.48828125 183.15625 C95.18273587 157.43123523 88.36464305 131.83902931 71.328125 112.203125 C70.69261719 111.37683594 70.05710937 110.55054688 69.40234375 109.69921875 C58.34707056 96.39541542 41.1777077 88.11295489 24.328125 85.203125 C9.63362189 84.23427135 -4.63266725 84.59414103 -18.671875 89.203125 Z "
        fill="#4a238e" transform="translate(552.671875,1640.796875)" />
    <path
        d="M0 0 C0.87640137 0.19867676 1.75280273 0.39735352 2.65576172 0.60205078 C48.86532116 11.44574244 88.03474206 37.60463611 113.28613281 78.06054688 C126.01048362 99.07454269 133.75813223 121.85847003 138 146 C138.3403125 147.90458984 138.3403125 147.90458984 138.6875 149.84765625 C145.61321985 197.1253133 135.40357662 247.26987766 107 286 C104.10727614 289.76581795 101.10340324 293.40658572 98 297 C97.32066406 297.80179688 96.64132812 298.60359375 95.94140625 299.4296875 C91.63061189 304.4211336 87.10672785 308.83244049 82 313 C81.25339111 313.61512451 81.25339111 313.61512451 80.49169922 314.24267578 C72.38792301 320.89002399 64.11690678 326.78418099 55 332 C53.90945313 332.64453125 52.81890625 333.2890625 51.6953125 333.953125 C34.23533891 343.98537502 14.70812607 350.23548414 -5 354 C-5.80920898 354.16226074 -6.61841797 354.32452148 -7.45214844 354.49169922 C-32.06230177 359.25162708 -60.491641 359.39298642 -85 354 C-85.8048584 353.82307617 -86.6097168 353.64615234 -87.43896484 353.46386719 C-115.12392352 347.14927547 -141.64317088 334.918694 -163 316 C-163.75893555 315.33943604 -163.75893555 315.33943604 -164.53320312 314.66552734 C-200.07302698 283.62755845 -220.77319693 238.93090148 -224 192 C-226.42103804 139.20733574 -212.72847041 90.6225459 -177 51 C-152.09111816 23.80479567 -117.68454049 7.49586501 -82 0 C-81.24750977 -0.16516113 -80.49501953 -0.33032227 -79.71972656 -0.50048828 C-54.91411131 -5.72187051 -24.71007706 -5.66474063 0 0 Z M-92 97 C-92.6290625 97.44601562 -93.258125 97.89203125 -93.90625 98.3515625 C-110.72160733 111.28035139 -122.45492993 135.15434236 -125.734375 155.7578125 C-125.82203125 156.49773437 -125.9096875 157.23765625 -126 158 C-126.10828125 158.86367187 -126.2165625 159.72734375 -126.328125 160.6171875 C-126.62891997 163.41141442 -126.83634711 166.19452186 -127 169 C-127.05414062 169.86625 -127.10828125 170.7325 -127.1640625 171.625 C-127.96056044 197.11293396 -120.73601112 225.65844512 -103.75 245.0625 C-102.18250352 246.72342342 -100.59913186 248.36951262 -99 250 C-97.90945313 251.1446875 -97.90945313 251.1446875 -96.796875 252.3125 C-83.62714024 265.21346466 -65.30619744 272.16954134 -47 273 C-46.33613281 273.03996094 -45.67226563 273.07992187 -44.98828125 273.12109375 C-23.06991979 273.80984078 -2.14563792 265.94789648 14.28515625 251.58984375 C33.10696413 233.63465149 41.77052262 208.00266682 42.43888855 182.45932007 C42.67943142 168.98585755 42.32842215 155.86748625 38 143 C37.78037598 142.34692871 37.56075195 141.69385742 37.33447266 141.02099609 C29.43194425 118.36484425 16.74761382 99.80999805 -5.25 89.1875 C-15.80197892 84.36872208 -27.3967605 81.4455334 -39 81 C-39.84433594 80.96003906 -40.68867187 80.92007812 -41.55859375 80.87890625 C-60.46444787 80.4124338 -76.96880312 85.63381718 -92 97 Z "
        fill="#4a238e" transform="translate(994,1644)" />
    <path
        d="M0 0 C0.88207123 0.00182281 1.76414246 0.00364563 2.67294312 0.00552368 C15.76765907 0.05107955 28.54826483 0.43749376 41.375 3.3125 C42.15955566 3.48410645 42.94411133 3.65571289 43.75244141 3.83251953 C69.41320841 9.61821332 93.57967171 20.09108024 114.375 36.3125 C115.30054687 37.01632812 116.22609375 37.72015625 117.1796875 38.4453125 C154.30720997 67.60925044 175.67071339 110.916878 181.375 157.3125 C181.50648438 158.31667969 181.63796875 159.32085938 181.7734375 160.35546875 C186.85297503 207.92465134 174.304152 257.21457233 144.58984375 294.8984375 C141.95861307 298.1365846 139.20232867 301.24505849 136.375 304.3125 C135.6958252 305.05741699 135.6958252 305.05741699 135.00292969 305.81738281 C106.01385207 337.25796805 65.914922 353.07728156 24.375 359.3125 C23.71016602 359.4170752 23.04533203 359.52165039 22.36035156 359.62939453 C1.59421328 362.44011397 -22.19399829 361.80651283 -42.625 357.3125 C-44.00268555 357.01448486 -44.00268555 357.01448486 -45.40820312 356.71044922 C-59.11099327 353.65138152 -71.95255268 349.34948889 -84.625 343.3125 C-85.2840332 343.00086914 -85.94306641 342.68923828 -86.62207031 342.36816406 C-102.33562876 334.80356257 -116.18944235 324.47323869 -128.625 312.3125 C-129.62918285 311.36869939 -130.63440873 310.42600742 -131.640625 309.484375 C-162.16854391 280.4914067 -180.37732925 235.36770304 -181.74731445 193.58178711 C-181.84557474 189.07544291 -181.87159795 184.56981585 -181.875 180.0625 C-181.87567474 179.25981689 -181.87634949 178.45713379 -181.87704468 177.63012695 C-181.86015797 164.96793381 -181.26326724 152.73520717 -178.625 140.3125 C-178.37556641 139.09433594 -178.37556641 139.09433594 -178.12109375 137.8515625 C-170.49849597 101.60187526 -151.75553299 65.89915993 -122.625 42.3125 C-121.71492188 41.56484375 -120.80484375 40.8171875 -119.8671875 40.046875 C-95.00619735 20.23285277 -65.99837993 7.44530967 -34.625 2.3125 C-33.5632959 2.13517334 -32.5015918 1.95784668 -31.40771484 1.77514648 C-20.91373806 0.18769759 -10.59498818 -0.04543466 0 0 Z M-56.625 106.3125 C-57.54732422 107.09173828 -57.54732422 107.09173828 -58.48828125 107.88671875 C-77.86720343 125.57276957 -83.516216 153.93522297 -84.75390625 178.9140625 C-85.35298969 205.3536118 -77.1336739 232.59962374 -58.859375 252.0390625 C-58.12203125 252.78929687 -57.3846875 253.53953125 -56.625 254.3125 C-56.01140625 254.93898438 -55.3978125 255.56546875 -54.765625 256.2109375 C-38.74005972 271.34619359 -15.24194895 277.14237911 6.30078125 276.5546875 C24.96828922 275.65963965 40.47718468 268.35989798 54.375 256.3125 C55.03757812 255.75046875 55.70015625 255.1884375 56.3828125 254.609375 C73.40051117 238.9372618 83.3450853 214.66288887 84.49975586 191.84741211 C85.40972975 161.14358887 80.05500408 132.78373735 58.80859375 109.5 C52.88515254 103.29850251 46.86402434 98.47792813 39.375 94.3125 C38.15876953 93.62220703 38.15876953 93.62220703 36.91796875 92.91796875 C5.9380318 76.35196046 -30.81575796 83.79049361 -56.625 106.3125 Z "
        fill="#894eef" transform="translate(3077.625,1640.6875)" />
    <path
        d="M0 0 C12.56417559 11.59770054 20.02327135 28.46729171 20.77453613 45.49327087 C20.83258044 48.30837088 20.85891468 51.12182569 20.87109375 53.9375 C20.87679382 54.96369446 20.8824939 55.98988892 20.8883667 57.04718018 C20.89777381 59.20543396 20.90433352 61.36370184 20.90820312 63.52197266 C20.91797814 66.83130378 20.94906949 70.14003127 20.98046875 73.44921875 C20.9869929 75.54947549 20.99224567 77.64973665 20.99609375 79.75 C21.00844055 80.74062439 21.02078735 81.73124878 21.0335083 82.75189209 C21.0305072 83.670047 21.0275061 84.5882019 21.02441406 85.53417969 C21.02805969 86.34135437 21.03170532 87.14852905 21.03546143 87.98016357 C20.66796875 90.078125 20.66796875 90.078125 19.46488953 91.83786011 C17.0581305 93.4990456 15.47544178 93.45871773 12.56079102 93.46630859 C11.5186293 93.47576508 10.47646759 93.48522156 9.40272522 93.4949646 C8.27466965 93.48889191 7.14661407 93.48281921 5.984375 93.4765625 C4.23555275 93.48086777 4.23555275 93.48086777 2.45140076 93.48526001 C-0.02255741 93.48730417 -2.49653161 93.48174988 -4.97045898 93.46923828 C-8.72352253 93.45332014 -12.47548764 93.46900834 -16.22851562 93.48828125 C-18.6367211 93.48629634 -21.0449259 93.48244756 -23.453125 93.4765625 C-25.11788124 93.48567154 -25.11788124 93.48567154 -26.81626892 93.4949646 C-37.79060243 93.39802339 -48.24905213 92.05162811 -56.33203125 84.078125 C-60.08383038 80.08427431 -62.5425316 75.76755566 -64.8828125 70.82397461 C-69.50533975 61.07110392 -73.21164574 57.06891722 -83.45703125 53.265625 C-104.77643343 46.05808094 -128.85436007 49.15426669 -149.0546875 58.38671875 C-170.82264125 69.62095471 -186.85442944 88.19168872 -194.63574219 111.38598633 C-203.09350607 138.13741131 -201.57466688 167.77290817 -189.33203125 193.078125 C-184.71337682 201.73932262 -179.26086885 209.13732049 -172.33203125 216.078125 C-171.65785156 216.76390625 -170.98367187 217.4496875 -170.2890625 218.15625 C-152.72352234 234.89789053 -127.99628306 242.81437797 -104.08203125 243.390625 C-67.90666593 242.23341582 -32.42024991 224.91829012 -7.39453125 199.078125 C-5.33203125 197.078125 -5.33203125 197.078125 -2.33203125 196.078125 C3.03570528 200.71250853 6.18238239 206.56927248 9.73046875 212.640625 C11.06506309 214.89455557 12.39969906 217.14846149 13.734375 219.40234375 C14.3958252 220.52560059 15.05727539 221.64885742 15.73876953 222.80615234 C18.52686345 227.53483302 21.34516124 232.24511454 24.16796875 236.953125 C24.65571777 237.77135742 25.1434668 238.58958984 25.64599609 239.43261719 C28.27744665 243.83197437 31.00553836 248.1301814 33.85546875 252.390625 C36.3463293 256.29785723 37.94883941 259.30332375 37.66796875 264.078125 C32.47065916 274.69871417 20.89222844 282.11683772 11.66796875 289.078125 C11.10303711 289.50915527 10.53810547 289.94018555 9.95605469 290.38427734 C-34.07885039 323.80293558 -89.15923842 333.91483747 -143.25585938 326.6875 C-180.61002447 321.14213941 -215.0323874 305.34921084 -242.33203125 279.078125 C-242.83299316 278.60294434 -243.33395508 278.12776367 -243.85009766 277.63818359 C-276.04193203 246.99263968 -295.42219086 204.17892797 -296.59791565 159.57015991 C-296.65726957 155.84319058 -296.66262269 152.11795643 -296.64453125 148.390625 C-296.64270844 147.6054248 -296.64088562 146.82022461 -296.63900757 146.01123047 C-296.59025056 133.491321 -295.94018434 121.35903483 -293.33203125 109.078125 C-293.08259766 107.85996094 -293.08259766 107.85996094 -292.828125 106.6171875 C-286.27296105 75.44374115 -272.16939661 46.38942747 -249.76806641 23.54931641 C-248.25299181 21.99715056 -246.76738311 20.41970964 -245.28125 18.83984375 C-218.39451831 -9.34418207 -180.36318984 -25.83887862 -142.33203125 -31.921875 C-141.04683594 -32.14617187 -139.76164062 -32.37046875 -138.4375 -32.6015625 C-91.18384819 -39.59146439 -37.50077111 -30.9051581 0 0 Z "
        fill="#894eef" transform="translate(2848.33203125,1674.921875)" />
    <path
        d="M0 0 C1.32794838 -0.0049926 1.32794838 -0.0049926 2.682724 -0.01008606 C4.56655357 -0.01515553 6.45039213 -0.01749438 8.33422852 -0.01733398 C11.15201796 -0.01948333 13.96939122 -0.03753325 16.78710938 -0.05664062 C49.0173252 -0.15862711 49.0173252 -0.15862711 62.15234375 6.16796875 C63.01214844 6.57789063 63.87195312 6.9878125 64.7578125 7.41015625 C73.73623382 12.21856948 80.03408927 19.75977469 83.3383944 29.41217709 C86.00907908 38.45432523 86.44343966 47.56701155 86.40631104 56.93530273 C86.40943102 58.16371572 86.412551 59.39212872 86.41576552 60.65776634 C86.42231504 64.03208223 86.42002263 67.40617226 86.41379309 70.78047395 C86.40923925 74.43273294 86.41626654 78.08497321 86.42175293 81.73722839 C86.43061534 88.87576819 86.42873966 96.01426577 86.42292765 103.15280718 C86.41840154 108.95292883 86.41780234 114.7530387 86.41997528 120.55316162 C86.42028175 121.38021386 86.42058821 122.2072661 86.42090397 123.05938053 C86.42154344 124.7396822 86.42219186 126.41998387 86.42284915 128.10028553 C86.42854246 143.82887698 86.42200877 159.55744506 86.41124842 175.28603268 C86.40230052 188.78363631 86.40387706 202.28120557 86.41308594 215.77880859 C86.42378336 231.46547988 86.42800719 247.15213077 86.42186141 262.8388052 C86.42122432 264.51030413 86.42059558 266.18180306 86.41997528 267.853302 C86.41951245 269.08685141 86.41951245 269.08685141 86.41904028 270.345321 C86.41731274 276.14296923 86.42022942 281.94060451 86.42493439 287.73825073 C86.43053676 294.79648009 86.42903981 301.85466494 86.4183729 308.91288918 C86.41310954 312.51441695 86.4110709 316.11587044 86.4176712 319.71739769 C86.42471022 323.61714196 86.41631744 327.51676404 86.40631104 331.41650391 C86.41077248 332.56006064 86.41523392 333.70361738 86.41983056 334.88182735 C86.41200732 336.44497598 86.41200732 336.44497598 86.40402603 338.03970337 C86.40370133 338.93997065 86.40337662 339.84023792 86.40304208 340.76778603 C86.13158078 343.36675315 85.54836909 344.96987203 84.15234375 347.16796875 C79.93992985 349.63965988 75.51834956 349.45774236 70.76953125 349.44262695 C69.93802551 349.44773788 69.10651978 349.45284882 68.24981689 349.45811462 C65.50891874 349.47198307 62.76827276 349.47105616 60.02734375 349.46875 C58.11832588 349.47263796 56.20930886 349.47697284 54.30029297 349.48173523 C50.3023803 349.48919117 46.30455596 349.48891034 42.30664062 349.48364258 C37.18527434 349.47784365 32.06426921 349.49479221 26.94296265 349.51798725 C23.00185027 349.53272199 19.06082498 349.53359673 15.11968994 349.53047752 C13.23145837 349.5309907 11.34322192 349.53622769 9.45501709 349.54628944 C6.81482474 349.55863378 4.17533741 349.55187473 1.53515625 349.5402832 C0.75682434 349.54792694 -0.02150757 349.55557068 -0.82342529 349.56344604 C-5.31299257 349.51990566 -8.51359696 349.30471476 -11.84765625 346.16796875 C-14.28267278 339.02478476 -14.12783534 332.03251207 -14.10162354 324.54618835 C-14.10393027 323.163737 -14.10710822 321.78128687 -14.11107802 320.39883929 C-14.11940495 316.61454666 -14.1153104 312.83035528 -14.10910559 309.04606235 C-14.1045737 304.95952928 -14.11156837 300.8730134 -14.11706543 296.78648376 C-14.12595201 288.7881322 -14.12404104 280.78981821 -14.11824015 272.79146519 C-14.11372235 266.29329902 -14.11311126 259.79514338 -14.11528778 253.29697609 C-14.11574748 251.90944524 -14.11574748 251.90944524 -14.11621647 250.49388346 C-14.11685591 248.61475493 -14.11750434 246.73562639 -14.11816165 244.85649786 C-14.12386238 227.24375111 -14.11731026 209.63102519 -14.10656092 192.01828185 C-14.09761823 176.89718726 -14.09918385 161.77612335 -14.10839844 146.6550293 C-14.11909285 129.09730725 -14.12332088 111.53960343 -14.11717391 93.98187858 C-14.1165368 92.11121325 -14.11590806 90.24054792 -14.11528778 88.36988258 C-14.11497923 87.44945179 -14.11467068 86.529021 -14.11435278 85.58069837 C-14.1126239 79.08581949 -14.11554493 72.59095215 -14.12024689 66.09607506 C-14.12584618 58.18792095 -14.12435907 50.27980657 -14.1136854 42.37165704 C-14.10841697 38.33485136 -14.10639189 34.298112 -14.1129837 30.26130676 C-14.11892069 26.5698287 -14.11570558 22.87847876 -14.1050286 19.18701241 C-14.10171808 17.21125358 -14.10828541 15.23548594 -14.11514306 13.25973624 C-14.10992757 12.09524256 -14.10471207 10.93074889 -14.09933853 9.73096752 C-14.09901383 8.72183054 -14.09868912 7.71269356 -14.09835458 6.67297667 C-13.84765625 4.16796875 -13.84765625 4.16796875 -11.84765625 1.16796875 C-7.89903125 -0.14823958 -4.11693609 0.00541061 0 0 Z "
        fill="#4a238e" transform="translate(1534.84765625,1646.83203125)" />
    <path
        d="M0 0 C0.78457581 -0.0065712 1.56915161 -0.0131424 2.37750244 -0.01991272 C4.96805944 -0.03957923 7.55855835 -0.05129946 10.14916992 -0.0612793 C11.04031683 -0.06535482 11.93146374 -0.06943035 12.8496151 -0.07362938 C17.5753595 -0.0944715 22.3010751 -0.10877583 27.02685547 -0.11816406 C31.86695711 -0.12916659 36.70659115 -0.16349985 41.54652882 -0.20333576 C45.30192308 -0.2297166 49.0572101 -0.2378752 52.81268883 -0.24144554 C54.59416515 -0.24626391 56.37563826 -0.25773889 58.15702248 -0.27648354 C80.16286221 -0.49346894 100.39659798 4.45844877 116.87182617 19.78637695 C133.45870565 37.23032923 138.77876844 58.40035469 138.31323242 81.85668945 C137.5344482 103.42242559 130.40161622 124.32176555 114.33666992 139.34106445 C94.132376 155.68532976 71.27920339 156.49627129 46.52807617 156.51293945 C44.27080198 156.51937698 42.0135286 156.52610604 39.7562561 156.53311157 C35.05468812 156.5450153 30.3531933 156.54879875 25.65161133 156.54760742 C19.62346261 156.54740279 13.59577769 156.57488406 7.56773949 156.60915184 C2.91982856 156.63134444 -1.72796847 156.63544758 -6.37592697 156.63438797 C-8.5999247 156.63674855 -10.82392535 156.64559767 -13.04787064 156.6610527 C-16.14480134 156.68058934 -19.24070014 156.67492672 -22.33764648 156.6628418 C-23.25504608 156.67408081 -24.17244568 156.68531982 -25.11764526 156.69689941 C-25.9611554 156.68851044 -26.80466553 156.68012146 -27.67373657 156.67147827 C-28.40404902 156.67256781 -29.13436146 156.67365734 -29.88680458 156.67477989 C-32.87613364 155.94751655 -34.07270278 154.58543235 -35.93286133 152.17700195 C-36.43063927 149.80463123 -36.43063927 149.80463123 -36.42733765 147.12495422 C-36.43572662 146.10593521 -36.4441156 145.0869162 -36.45275879 144.03701782 C-36.44151978 142.92474823 -36.43028076 141.81247864 -36.41870117 140.66650391 C-36.42249786 139.49044083 -36.42629456 138.31437775 -36.4302063 137.10267639 C-36.436347 133.87902059 -36.42459942 130.65604059 -36.40430021 127.43246102 C-36.38670203 124.05208253 -36.39025497 120.67172051 -36.39102173 117.29130554 C-36.38914866 111.60931155 -36.3717918 105.92753115 -36.34448242 100.24560547 C-36.31310711 93.69390474 -36.30248368 87.14243848 -36.30395353 80.59066802 C-36.30530982 73.59906711 -36.29138902 66.60755561 -36.27306032 59.61598182 C-36.26881563 57.61072236 -36.26738037 55.60547753 -36.26658249 53.600214 C-36.2622283 49.84484956 -36.24467891 46.08977451 -36.22338867 42.33447266 C-36.22429504 41.23232422 -36.22520142 40.13017578 -36.22613525 38.99462891 C-36.13800944 28.32115719 -34.56671772 17.73812648 -27.36645508 9.3527832 C-19.52687655 2.13164011 -10.38418842 0.03809298 0 0 Z "
        fill="#632ebe" transform="translate(1795.932861328125,644.822998046875)" />
    <path
        d="M0 0 C1.25248032 -0.00960754 2.50496063 -0.01921509 3.7953949 -0.02911377 C5.15273859 -0.03396592 6.51008445 -0.03824372 7.86743164 -0.04199219 C8.90676944 -0.04623325 8.90676944 -0.04623325 9.96710396 -0.05056 C13.64132181 -0.06551482 17.31550085 -0.07476497 20.98974609 -0.07910156 C24.74137467 -0.08454982 28.49263362 -0.10851031 32.2441473 -0.13707352 C35.16568449 -0.15592587 38.08713713 -0.16091753 41.00872993 -0.16243744 C42.38910482 -0.16541902 43.76947991 -0.17329027 45.14979362 -0.18662262 C65.60251966 -0.36991286 83.25661643 4.23495082 98.77368164 18.11425781 C111.72866784 31.34703124 116.37984216 50.03718548 116.61303711 68.06103516 C116.39939681 87.61139542 110.60656733 105.35145906 97.06665039 119.77441406 C80.39734631 135.83899576 59.83970666 138.56496133 37.71508789 138.91113281 C36.47379623 138.93583145 36.47379623 138.93583145 35.20742798 138.96102905 C20.69430468 139.24447711 6.17711369 139.21060317 -8.3369751 139.01696777 C-10.59028381 138.98812451 -12.84367679 138.96523717 -15.09710693 138.94836426 C-18.26066308 138.92108667 -21.42264401 138.86733094 -24.58569336 138.80566406 C-26.01261757 138.79902489 -26.01261757 138.79902489 -27.46836853 138.79225159 C-28.34151199 138.76936569 -29.21465546 138.7464798 -30.11425781 138.72290039 C-30.87519241 138.71100174 -31.63612701 138.69910309 -32.42012024 138.68684387 C-34.40991211 138.16113281 -34.40991211 138.16113281 -36.15512085 136.72969055 C-38.10594202 132.73635957 -37.81852961 128.88937053 -37.78222656 124.50244141 C-37.78587723 123.52305603 -37.78952789 122.54367065 -37.79328918 121.53460693 C-37.80140246 118.29275226 -37.78777193 115.05139645 -37.77319336 111.80957031 C-37.7726746 109.55237834 -37.77319292 107.29518591 -37.77470398 105.03799438 C-37.7746142 100.3017911 -37.76417853 95.56575784 -37.74609375 90.82958984 C-37.72348449 84.77720124 -37.72284793 78.72506279 -37.7296114 72.67264366 C-37.73296503 68.00731205 -37.72629378 63.34203675 -37.71648216 58.67671585 C-37.71264803 56.44653239 -37.71147449 54.21634265 -37.71306801 51.98615646 C-37.7134417 48.85604853 -37.70073107 45.72625221 -37.68457031 42.59619141 C-37.68704773 41.68465302 -37.68952515 40.77311462 -37.69207764 39.83395386 C-37.60433717 29.10654339 -35.84322027 18.48990824 -28.65600586 10.11816406 C-20.61394053 2.49851025 -10.85470956 0.06761474 0 0 Z "
        fill="#632ebe" transform="translate(1797.409912109375,416.8388671875)" />
    <path
        d="M0 0 C0.74830078 0.73283203 0.74830078 0.73283203 1.51171875 1.48046875 C1.51171875 2.14046875 1.51171875 2.80046875 1.51171875 3.48046875 C2.09179688 3.70992187 2.671875 3.939375 3.26953125 4.17578125 C13.04826322 9.8658448 18.75248341 25.32605353 21.88671875 35.60546875 C26.73384849 55.41988615 22.71145308 75.60454187 12.38671875 93.04296875 C1.29999046 109.67306119 -15.54576417 119.94776855 -34.953125 123.97265625 C-53.60033539 126.65126106 -71.80635531 123.07737892 -87.48828125 112.48046875 C-91.10679646 109.71805343 -94.31581546 106.74030021 -97.48828125 103.48046875 C-98.26816406 102.72121094 -99.04804688 101.96195313 -99.8515625 101.1796875 C-112.32809156 88.36765514 -117.8300523 70.93362438 -118.5859375 53.30859375 C-118.04498075 32.10308925 -108.52126993 14.03981532 -93.48828125 -0.51953125 C-65.94426768 -23.93628727 -27.52345958 -21.5938094 0 0 Z "
        fill="#894eef" transform="translate(2223.48828125,781.51953125)" />
    <path
        d="M0 0 C11.21480517 9.60055291 19.54525015 22.99668366 21.203125 37.89453125 C22.3934567 56.57848781 17.89561628 72.13243922 5.62109375 86.421875 C1.86269485 90.26527807 -2.1835564 93.16230225 -6.796875 95.89453125 C-7.57675781 96.36632813 -8.35664063 96.838125 -9.16015625 97.32421875 C-22.86784233 104.90719403 -38.37967661 105.47294276 -53.34375 101.9296875 C-68.33402675 97.43599594 -79.54148702 88.04441804 -87.796875 74.89453125 C-95.79916581 59.4754831 -96.86444389 43.2450695 -92.046875 26.65234375 C-87.24501408 12.21674935 -77.35761697 0.81916545 -63.796875 -6.10546875 C-42.11341033 -15.74256416 -19.28546792 -14.51797096 0 0 Z "
        fill="#894eef" transform="translate(2514.796875,1896.10546875)" />
    <path
        d="M0 0 C13.26491236 9.81210156 23.01059671 22.62681535 26.0859375 39.16796875 C27.9883729 56.42019119 24.97525706 72.6244437 14.1484375 86.62890625 C4.87601149 97.44428746 -8.18742413 106.11826877 -22.62890625 107.75390625 C-40.86516884 109.09344935 -54.67735981 104.95594792 -69.81640625 94.56640625 C-81.38538644 82.99742606 -88.72657036 68.7369643 -89.00927734 52.24365234 C-88.97495533 35.13568902 -84.81024356 20.55712996 -72.8203125 7.81640625 C-53.46230736 -10.40289271 -22.69801765 -14.87111501 0 0 Z "
        fill="#4a238e" transform="translate(1598.62890625,1507.24609375)" />
    <path
        d="M0 0 C1 2 1 2 0.44604492 3.7331543 C-0.62748954 6.05801463 -1.70375248 8.37913869 -2.8125 10.6875 C-3.42665771 11.96874756 -3.42665771 11.96874756 -4.05322266 13.27587891 C-11.91113652 29.26904477 -22.83227807 43.95293526 -36 56 C-36.66 56 -37.32 56 -38 56 C-38 56.66 -38 57.32 -38 58 C-39.32250977 59.27758789 -39.32250977 59.27758789 -41.19140625 60.72265625 C-41.88073242 61.25656982 -42.57005859 61.7904834 -43.28027344 62.34057617 C-44.0334082 62.90881104 -44.78654297 63.4770459 -45.5625 64.0625 C-46.33754883 64.64813721 -47.11259766 65.23377441 -47.91113281 65.8371582 C-70.79262987 82.88139554 -96.66087501 93.28774189 -124.1875 100.25 C-125.08049805 100.48428711 -125.97349609 100.71857422 -126.89355469 100.95996094 C-152.6454647 107.1386464 -179.20899906 106.47547574 -205.49515581 106.50611091 C-210.98089262 106.51563096 -216.46655217 106.54185229 -221.95223999 106.56611633 C-232.31625898 106.60948913 -242.68026274 106.63820344 -253.04434431 106.66143972 C-264.7950492 106.68852739 -276.54567236 106.7325119 -288.29631925 106.77772844 C-306.60979025 106.84778881 -324.92327175 106.90871735 -343.23681641 106.95581055 C-344.1379567 106.95818285 -345.03909698 106.96055515 -345.96754456 106.96299934 C-346.83818039 106.96526464 -347.70881622 106.96752995 -348.60583496 106.96986389 C-349.45176547 106.9721404 -350.29769598 106.97441692 -351.16926074 106.97676241 C-352.80433686 106.98035014 -354.43941663 106.98257855 -356.07449651 106.98332155 C-359.89481156 106.9856823 -363.71279148 107.00675294 -367.5325737 107.07297707 C-368.25321263 107.08209643 -368.97385155 107.0912158 -369.71632802 107.10061151 C-371.64805602 107.12580983 -373.57964775 107.16092191 -375.51120567 107.19686604 C-379.30155189 106.982984 -382.43151659 106.2862393 -386 105 C-388 102.5625 -388 102.5625 -389 100 C-388.67 99.01 -388.34 98.02 -388 97 C-387.51705727 97.64980143 -387.03411453 98.29960285 -386.53653717 98.96909523 C-382.98986013 101.80877895 -379.76602585 101.54911989 -375.41540527 101.49447632 C-374.10224941 101.50171956 -374.10224941 101.50171956 -372.76256514 101.50910914 C-369.8225283 101.5204 -366.88335746 101.50304481 -363.94335938 101.48583984 C-361.83731348 101.48798546 -359.73126874 101.49186279 -357.62522888 101.49734497 C-351.89485074 101.50705797 -346.16478314 101.49170294 -340.43444252 101.47143888 C-334.4259845 101.45386647 -328.41753609 101.45739325 -322.40905762 101.4581604 C-312.30080993 101.45628521 -302.19268202 101.43890515 -292.08447266 101.41162109 C-280.43999299 101.38030396 -268.79564515 101.36962019 -257.15112638 101.3710922 C-244.72107585 101.37245079 -232.29107542 101.35851025 -219.86104012 101.34019899 C-216.30064321 101.33596059 -212.74025454 101.33451986 -209.17985535 101.33372116 C-203.54588683 101.33168993 -197.9120261 101.31930143 -192.27809334 101.29938889 C-190.22564926 101.29361706 -188.17319275 101.29107196 -186.12074089 101.29224396 C-137.06236082 101.30963361 -84.82517815 90.72999803 -46 59 C-45.39865234 58.5153125 -44.79730469 58.030625 -44.17773438 57.53125 C-24.38636771 41.48080692 -11.79070066 22.3337446 0 0 Z "
        fill="#050C28" transform="translate(2037,797)" />
    <path
        d="M0 0 C0.78457581 -0.0065712 1.56915161 -0.0131424 2.37750244 -0.01991272 C4.96805944 -0.03957923 7.55855835 -0.05129946 10.14916992 -0.0612793 C11.04031683 -0.06535482 11.93146374 -0.06943035 12.8496151 -0.07362938 C17.5753595 -0.0944715 22.3010751 -0.10877583 27.02685547 -0.11816406 C31.86695711 -0.12916659 36.70659115 -0.16349985 41.54652882 -0.20333576 C45.30192308 -0.2297166 49.0572101 -0.2378752 52.81268883 -0.24144554 C54.59416515 -0.24626391 56.37563826 -0.25773889 58.15702248 -0.27648354 C80.16286221 -0.49346894 100.39659798 4.45844877 116.87182617 19.78637695 C125.97176084 29.35652101 135.58882202 43.37864121 136.19604492 57.0871582 C136.15350586 57.77680664 136.1109668 58.46645508 136.06713867 59.17700195 C134.09523452 56.21914573 133.32063912 53.99031265 132.31713867 50.61450195 C129.65072886 42.39638813 125.48794225 35.8487602 120.06713867 29.17700195 C120.06713867 28.51700195 120.06713867 27.85700195 120.06713867 27.17700195 C119.40713867 27.17700195 118.74713867 27.17700195 118.06713867 27.17700195 C115.94213867 25.30200195 115.94213867 25.30200195 114.06713867 23.17700195 C114.06713867 22.51700195 114.06713867 21.85700195 114.06713867 21.17700195 C113.54120117 20.92692383 113.01526367 20.6768457 112.47338867 20.41918945 C110.03583778 19.16084338 107.6993256 17.77058774 105.34814453 16.35913086 C88.84831543 6.56553798 72.20132504 4.85777544 53.37573242 4.8762207 C51.6967 4.87232156 50.01766854 4.86798445 48.33863831 4.86323547 C44.84161155 4.85582761 41.34468588 4.85602572 37.84765625 4.86132812 C33.39754863 4.86713102 28.94785611 4.85014543 24.49781704 4.82698345 C21.03768046 4.81215851 17.57764204 4.81138598 14.11747932 4.81449318 C12.47785683 4.81398487 10.83822811 4.80884095 9.19863701 4.79868126 C-9.65416551 4.66583825 -9.65416551 4.66583825 -25.93286133 13.17700195 C-28.19191699 16.04116181 -30.08597634 19.03612112 -31.93286133 22.17700195 C-32.59286133 23.16700195 -33.25286133 24.15700195 -33.93286133 25.17700195 C-33.43346564 18.68485801 -30.75090147 12.90642448 -26.06958008 8.37231445 C-18.00974564 2.08094854 -10.13923727 0.03719441 0 0 Z "
        fill="#050B26" transform="translate(1795.932861328125,644.822998046875)" />
    <path
        d="M0 0 C1.25248032 -0.00960754 2.50496063 -0.01921509 3.7953949 -0.02911377 C5.15273859 -0.03396592 6.51008445 -0.03824372 7.86743164 -0.04199219 C8.90676944 -0.04623325 8.90676944 -0.04623325 9.96710396 -0.05056 C13.64132181 -0.06551482 17.31550085 -0.07476497 20.98974609 -0.07910156 C24.74137467 -0.08454982 28.49263362 -0.10851031 32.2441473 -0.13707352 C35.16568449 -0.15592587 38.08713713 -0.16091753 41.00872993 -0.16243744 C42.38910482 -0.16541902 43.76947991 -0.17329027 45.14979362 -0.18662262 C65.60251966 -0.36991286 83.25661643 4.23495082 98.77368164 18.11425781 C103.18783029 22.62305682 106.1658831 27.65324182 109.02758789 33.22363281 C109.37007568 33.88427734 109.71256348 34.54492188 110.06542969 35.22558594 C112.33947709 39.90230203 113.1798091 43.9777515 113.59008789 49.16113281 C111.68713333 46.30670098 110.66628824 43.85313375 109.46508789 40.66113281 C103.56315459 26.41390025 93.60918683 16.48387126 79.36376953 10.57226562 C62.85776446 4.2225163 45.84683547 4.56919383 28.42932129 4.71160889 C25.63900268 4.72766769 22.84902392 4.7176434 20.05869675 4.70748997 C16.66803142 4.69877414 13.27761359 4.71400942 9.88696289 4.72753906 C8.04578888 4.7231356 8.04578888 4.7231356 6.16741943 4.71864319 C-5.56475712 4.84452856 -18.51454265 5.66760756 -27.40991211 14.16113281 C-29.67802142 17.02688647 -31.5762873 20.00489339 -33.40991211 23.16113281 C-34.06991211 24.15113281 -34.72991211 25.14113281 -35.40991211 26.16113281 C-35.07219913 18.2248777 -31.10804167 12.9205835 -25.65991211 7.34863281 C-17.71431927 2.00063763 -9.50736127 0.05922202 0 0 Z "
        fill="#050C28" transform="translate(1797.409912109375,416.8388671875)" />
    <path
        d="M0 0 C1.31990415 3.95971244 0.06424166 6.31089901 -1.4375 10 C-1.8382373 10.99725098 -1.8382373 10.99725098 -2.24707031 12.01464844 C-4.93195763 18.37101989 -8.7047702 23.6212888 -13 29 C-13.99 30.485 -13.99 30.485 -15 32 C-15.66 32 -16.32 32 -17 32 C-17 32.66 -17 33.32 -17 34 C-17.66 34 -18.32 34 -19 34 C-19 34.66 -19 35.32 -19 36 C-35.55941836 50.47319242 -55.09175447 55.51961096 -76.59521484 54.22314453 C-89.73940151 53.00347076 -103.89569725 46.42025229 -114 38 C-114 37.34 -114 36.68 -114 36 C-114.61875 35.7525 -115.2375 35.505 -115.875 35.25 C-118.35068687 33.79371361 -118.95125002 32.62187494 -120 30 C-120.66 30 -121.32 30 -122 30 C-123.54598986 27.94677968 -124.94205822 25.91709901 -126.3125 23.75 C-126.71259277 23.1211792 -127.11268555 22.4923584 -127.52490234 21.84448242 C-131.00695058 16.23498593 -134.21014272 10.38793892 -136 4 C-135.67 3.01 -135.34 2.02 -135 1 C-134.50371094 2.05058594 -134.00742188 3.10117187 -133.49609375 4.18359375 C-129.69074513 12.10487389 -125.94793947 19.43939724 -120 26 C-119.35804688 26.74507812 -118.71609375 27.49015625 -118.0546875 28.2578125 C-109.50373725 37.56604248 -98.0604466 43.49620053 -86 47 C-85.23945313 47.22429688 -84.47890625 47.44859375 -83.6953125 47.6796875 C-64.85429844 52.31064382 -45.28766786 47.91134667 -28.84570312 38.19335938 C-16.1270822 29.96999706 -7.76286441 17.78173387 -2 4 C-1.34510219 2.66084688 -0.68260774 1.32524296 0 0 Z "
        fill="#050D2A" transform="translate(2244,856)" />
    <path
        d="M0 0 C1.40226796 4.20680388 -0.28018182 6.92213206 -1.9375 10.8125 C-2.2567041 11.57006592 -2.5759082 12.32763184 -2.90478516 13.1081543 C-9.90698326 29.33155696 -19.89252155 43.16425217 -32 56 C-32.60328125 56.64453125 -33.2065625 57.2890625 -33.828125 57.953125 C-35.17173708 59.34891619 -36.57905068 60.68302258 -38 62 C-38.66 62 -39.32 62 -40 62 C-40 62.66 -40 63.32 -40 64 C-42.046875 65.98046875 -42.046875 65.98046875 -44.75 68.1875 C-45.63171875 68.92355469 -46.5134375 69.65960937 -47.421875 70.41796875 C-50 72 -50 72 -52.16113281 71.59887695 C-52.76795898 71.40124756 -53.37478516 71.20361816 -54 71 C-51.83472489 68.97765738 -49.66808913 66.95682292 -47.5 64.9375 C-46.85651611 64.33768311 -46.21303223 63.73786621 -45.55004883 63.11987305 C-42.31594819 60.11488681 -39.06327446 57.15887602 -35.6875 54.3125 C-19.16091021 39.93085058 -8.06375569 20.09830017 0 0 Z "
        fill="#050C28" transform="translate(2018,523)" />
</svg>